<svg height="477.60001pt" viewBox="0 0 477.60001 477.60001" width="477.60001pt" xmlns="http://www.w3.org/2000/svg"><path d="m477.601562 238.800781c0 131.886719-106.914062 238.800781-238.800781 238.800781s-238.800781-106.914062-238.800781-238.800781 106.914062-238.800781 238.800781-238.800781 238.800781 106.914062 238.800781 238.800781zm0 0" fill="#382b73"/><path d="m445.398438 238.800781c0 114.101563-92.496094 206.597657-206.597657 206.597657-114.101562 0-206.597656-92.496094-206.597656-206.597657 0-114.101562 92.496094-206.597656 206.597656-206.597656 114.101563 0 206.597657 92.496094 206.597657 206.597656zm0 0" fill="#473080"/><g fill="#382b73"><path d="m239.253906 160.722656c-.152344-.003906-.300781 0-.453125 0-1.789062 0-3.59375.058594-5.410156.183594-38.144531 2.652344-68.65625 34.164062-70.179687 72.371094-.9375 23.546875 8.902343 44.816406 24.980468 59.292968 10.527344 9.480469 16.179688 23.246094 16.179688 37.414063v.945313c0 4.664062 3.296875 8.558593 7.6875 9.484374h-.207032v36.984376c0 6.191406 5.015626 11.207031 11.203126 11.207031h6.046874v1.128906c0 4.023437 3.261719 7.285156 7.28125 7.285156h4.832032c4.019531 0 7.28125-3.261719 7.28125-7.285156v-1.128906h6.046875c6.1875 0 11.203125-5.015625 11.203125-11.207031v-36.984376h-.207032c4.394532-.925781 7.6875-4.816406 7.6875-9.484374v-1.6875c0-14.226563 6.289063-27.570313 16.761719-37.203126 15.035157-13.820312 24.460938-33.640624 24.460938-55.671874 0-41.628907-33.625-75.398438-75.195313-75.644532zm0 0"/><path d="m167.605469 324.296875c-.003907-.015625 0-.03125-.003907-.050781-.023437-.300782-.0625-.597656-.113281-.894532-.3125-1.800781-1.136719-3.523437-2.464843-4.941406-.074219-.074218-.136719-.15625-.210938-.230468-3.769531-3.769532-9.902344-3.769532-13.667969 0l-14.742187 14.742187c-.074219.070313-.136719.152344-.210938.230469v.003906c-1.328125 1.417969-2.152344 3.136719-2.464844 4.9375 0 0 0 .003906-.003906.007812-.046875.292969-.085937.589844-.109375.886719-.003906.019531-.003906.035157-.003906.054688-.019531.28125-.03125.5625-.027344.84375 0 .039062.003907.078125.007813.117187.003906.261719.019531.523438.046875.785156.003906.0625.015625.121094.023437.179688.03125.242188.066406.480469.113282.71875.015624.082031.042968.164062.0625.246094.046874.210937.097656.425781.160156.636718.03125.105469.074218.207032.109375.3125.066406.1875.125.375.199219.554688.050781.125.113281.25.171874.371094.070313.160156.140626.316406.222657.472656.074219.144531.164062.285156.25.425781.074219.128907.144531.261719.230469.386719.109374.171875.234374.332031.359374.496094.070313.089844.132813.1875.207032.277344.203125.25.421875.492187.65625.726562 1.882812 1.882812 4.359375 2.824219 6.832031 2.824219 2.476563 0 4.953125-.941407 6.835937-2.824219l14.742188-14.742188c.234375-.234374.453125-.476562.65625-.726562.078125-.097656.144531-.195312.214844-.292969.121094-.15625.246094-.316406.351562-.476562.085938-.132813.160156-.265625.238282-.398438.082031-.140625.171874-.273437.246093-.414062.082031-.15625.152344-.320313.226563-.480469.054687-.121094.117187-.238281.167968-.359375.074219-.1875.136719-.378906.203126-.566406.03125-.101563.074218-.199219.105468-.300781.0625-.214844.113282-.429688.164063-.648438.015625-.078125.042969-.15625.058593-.238281.046876-.238281.082032-.480469.109376-.722657.007812-.058593.019531-.113281.023437-.171874.03125-.265626.042969-.527344.050781-.792969 0-.039063.003906-.074219.003906-.109375.003907-.289063-.007812-.574219-.027343-.855469zm0 0"/><path d="m343.988281 339.039062c0-.015624 0-.03125 0-.050781-.023437-.296875-.0625-.59375-.113281-.890625-.328125-1.894531-1.21875-3.714844-2.675781-5.171875l-14.742188-14.742187c-3.769531-3.769532-9.902343-3.769532-13.667969 0-1.460937 1.457031-2.347656 3.273437-2.675781 5.171875-.054687.296875-.089843.59375-.117187.894531v.050781c-.019532.285157-.03125.566407-.027344.847657 0 .039062.003906.074218.003906.109374.007813.265626.019532.53125.050782.792969.003906.058594.015624.117188.023437.175781.027344.242188.0625.484376.109375.722657.019531.082031.042969.160156.058594.238281.050781.21875.101562.433594.164062.648438.03125.101562.074219.199218.105469.300781.066406.1875.128906.378906.203125.566406.050781.121094.113281.238281.167969.359375.074219.160156.144531.324219.230469.480469.070312.140625.160156.277343.242187.414062.078125.132813.152344.265625.238281.398438.109375.164062.234375.320312.355469.480469.070313.097656.136719.195312.210937.289062.207032.25.421876.492188.65625.726562l14.742188 14.742188c1.882812 1.882812 4.359375 2.828125 6.835938 2.828125 2.472656 0 4.949218-.945313 6.832031-2.828125.234375-.234375.453125-.476562.65625-.726562.078125-.089844.136719-.1875.210937-.28125.121094-.164063.246094-.320313.359375-.488282.082031-.128906.152344-.257812.230469-.390625.082031-.140625.171875-.277343.25-.421875.082031-.15625.148438-.316406.222656-.472656.058594-.125.121094-.246094.171875-.367188.074219-.183593.136719-.375.199219-.558593.035156-.101563.074219-.203125.109375-.308594.0625-.210937.113281-.425781.160156-.640625.019531-.082031.042969-.160156.058594-.242188.050781-.238281.082031-.480468.113281-.71875.007813-.0625.019532-.117187.027344-.179687.027344-.261719.042969-.523437.046875-.789063 0-.039062.003906-.074218.007813-.113281 0-.289062-.011719-.574219-.035157-.855469zm0 0"/><path d="m133.609375 147.910156c-.019531.285156-.03125.566406-.027344.851563 0 .035156.003907.074219.007813.109375.003906.261718.019531.527344.046875.789062.003906.058594.015625.117188.023437.179688.03125.238281.066406.480468.113282.71875.015624.082031.039062.164062.0625.242187.046874.21875.097656.429688.160156.644531.035156.101563.074218.203126.109375.308594.066406.1875.125.375.199219.554688.050781.125.113281.242187.167968.367187.074219.160157.144532.320313.226563.476563.078125.140625.164062.28125.246093.417968.078126.128907.152344.265626.234376.390626.109374.167968.234374.328124.355468.488281.074219.09375.136719.191406.210938.285156.207031.25.425781.492187.65625.726563l14.742187 14.742187c1.886719 1.882813 4.363281 2.824219 6.835938 2.824219 2.476562 0 4.949219-.941406 6.832031-2.824219 1.828125-1.828125 2.832031-4.253906 2.832031-6.835937 0-.3125-.015625-.628907-.046875-.933594-.011718-.160156-.042968-.3125-.066406-.472656-.019531-.144532-.039062-.292969-.066406-.4375-.039063-.21875-.097656-.425782-.152344-.636719-.023438-.082031-.039062-.164063-.058594-.242188-.074218-.25-.160156-.492187-.253906-.730469-.015625-.039062-.027344-.078124-.042969-.117187-.105469-.261719-.222656-.523437-.351562-.777344-.007813-.011719-.011719-.023437-.015625-.035156-.410156-.800781-.9375-1.546875-1.570313-2.21875-.070312-.074219-.136719-.15625-.210937-.230469l-14.742188-14.742187c-1.824218-1.828125-4.25-2.832031-6.832031-2.832031s-5.007813 1.003906-6.835937 2.832031c-.074219.074219-.136719.15625-.207032.230469-1.550781 1.65625-2.414062 3.71875-2.582031 5.835937 0 .019531.003906.035156 0 .050781zm0 0"/><path d="m134.117188 243.230469c-.011719-.152344-.042969-.300781-.066407-.449219-.023437-.160156-.039062-.320312-.074219-.480469-.039062-.199219-.09375-.398437-.148437-.59375-.023437-.097656-.042969-.199219-.074219-.296875-.070312-.234375-.152344-.460937-.242187-.683594-.023438-.054687-.039063-.109374-.058594-.164062-.101563-.25-.21875-.496094-.339844-.734375-.011719-.023437-.023437-.050781-.039062-.074219-.132813-.257812-.277344-.507812-.433594-.746094-.003906-.007812-.003906-.011718-.007813-.019531-1.722656-2.675781-4.71875-4.460937-8.132812-4.460937h-20.847656c-3.414063 0-6.414063 1.78125-8.132813 4.460937-.003906.003907-.003906.011719-.007812.015625-.15625.242188-.300781.492188-.4375.75-.011719.023438-.019531.046875-.03125.070313-.121094.242187-.238281.484375-.339844.738281-.023437.054688-.042969.109375-.0625.164062-.085937.226563-.171875.453126-.242187.683594-.027344.097656-.046876.199219-.074219.296875-.050781.195313-.109375.394531-.148438.59375-.03125.160157-.050781.320313-.074219.480469-.023437.152344-.050781.296875-.066406.449219-.03125.316406-.046875.636719-.046875.964843 0 5.328126 4.335938 9.664063 9.664063 9.664063h20.851562c5.328125 0 9.660156-4.335937 9.660156-9.664063 0-.328124-.015624-.648437-.046874-.964843zm0 0"/><path d="m383.5625 243.230469c-.011719-.152344-.042969-.300781-.066406-.449219-.023438-.160156-.039063-.320312-.070313-.480469-.042969-.199219-.097656-.398437-.148437-.59375-.027344-.097656-.046875-.199219-.078125-.296875-.070313-.234375-.152344-.460937-.242188-.683594-.019531-.054687-.035156-.109374-.058593-.164062-.101563-.253906-.21875-.496094-.339844-.738281-.011719-.023438-.023438-.046875-.035156-.070313-.132813-.257812-.28125-.507812-.433594-.75-.003906-.003906-.007813-.011718-.011719-.015625-1.71875-2.675781-4.714844-4.460937-8.128906-4.460937h-20.847657c-3.414062 0-6.414062 1.78125-8.132812 4.460937-.003906.007813-.007812.011719-.011719.019531-.15625.238282-.300781.488282-.433593.746094-.011719.023438-.023438.050782-.035157.074219-.121093.238281-.238281.484375-.339843.734375-.023438.054688-.039063.109375-.058594.164062-.089844.226563-.175782.453126-.242188.683594-.03125.097656-.050781.199219-.078125.296875-.050781.195313-.109375.394531-.148437.59375-.03125.160157-.050782.320313-.074219.480469-.019531.152344-.050781.296875-.066406.449219-.03125.316406-.046875.636719-.046875.964843 0 5.328126 4.335937 9.664063 9.667968 9.664063h20.847657c5.328125 0 9.664062-4.335937 9.664062-9.664063 0-.328124-.015625-.648437-.050781-.964843zm0 0"/><path d="m310.992188 159.023438c-.125.253906-.246094.511718-.351563.777343-.015625.039063-.027344.078125-.039063.117188-.09375.238281-.179687.480469-.25.726562-.027343.082031-.042968.164063-.0625.242188-.054687.210937-.109374.421875-.152343.636719-.027344.144531-.042969.292968-.066407.441406-.023437.15625-.050781.3125-.066406.46875-.03125.308594-.046875.621094-.046875.9375 0 2.582031 1.007813 5.007812 2.832031 6.832031 1.882813 1.886719 4.359376 2.828125 6.832032 2.828125 2.476562 0 4.949218-.941406 6.835937-2.828125l14.742188-14.742187c.234375-.234376.449219-.476563.65625-.726563.074219-.089844.132812-.183594.203125-.277344.125-.164062.25-.324219.363281-.492187.085937-.125.152344-.261719.230469-.390625.085937-.140625.171875-.277344.25-.421875.082031-.15625.148437-.316406.222656-.472656.058594-.125.121094-.246094.171875-.371094.074219-.179688.136719-.367188.199219-.554688.035156-.105468.074218-.207031.109375-.308594.0625-.210937.113281-.425781.160156-.640624.019531-.082032.042969-.164063.058594-.246094.050781-.238282.082031-.476563.113281-.714844.007812-.0625.019531-.121094.027344-.179688.027344-.261718.042968-.527343.046875-.789062 0-.039062.003906-.074219.007812-.113281.003907-.28125-.007812-.566407-.03125-.847657 0-.019531 0-.035156 0-.054687-.023437-.296875-.0625-.59375-.113281-.890625 0-.003906 0-.003906 0-.003906-.328125-1.898438-1.214844-3.710938-2.675781-5.171875-1.824219-1.828125-4.25-2.832031-6.832031-2.832031-2.582032 0-5.007813 1.003906-6.835938 2.828124l-14.742188 14.742188c-.074218.074219-.136718.15625-.210937.234375-.628906.671875-1.15625 1.417969-1.566406 2.21875-.007813.015625-.011719.027344-.019531.039063zm0 0"/><path d="m238.800781 139.558594c5.328125 0 9.664063-4.335938 9.664063-9.664063v-20.847656c0-5.332031-4.335938-9.667969-9.664063-9.667969-5.332031 0-9.667969 4.335938-9.667969 9.667969v20.847656c0 5.328125 4.335938 9.664063 9.667969 9.664063zm0 0"/></g><path d="m314.449219 224.367188c0-43.570313-36.832031-78.535157-81.054688-75.464844-38.148437 2.652344-68.660156 34.164062-70.179687 72.371094-.9375 23.550781 8.898437 44.816406 24.976562 59.292968 10.53125 9.484375 16.179688 23.246094 16.179688 37.417969v.941406c0 5.355469 4.34375 9.699219 9.699218 9.699219h49.464844c5.355469 0 9.695313-4.34375 9.695313-9.699219v-1.683593c0-14.230469 6.289062-27.574219 16.761719-37.203126 15.03125-13.820312 24.457031-33.640624 24.457031-55.671874zm0 0" fill="#e6e7e8"/><path d="m281.472656 224.367188c0-43.570313-20.773437-78.535157-45.722656-75.464844-21.519531 2.652344-38.730469 34.164062-39.589844 72.371094-.53125 23.550781 5.019532 44.816406 14.089844 59.292968 5.941406 9.484375 9.125 23.246094 9.125 37.417969v.941406c0 5.355469 2.449219 9.699219 5.472656 9.699219h27.898438c3.023437 0 5.472656-4.34375 5.472656-9.699219v-1.683593c0-14.230469 3.546875-27.574219 9.457031-37.203126 8.480469-13.820312 13.796875-33.640624 13.796875-55.671874zm0 0" fill="#fff"/><path d="m254.542969 376.605469h-31.488281c-6.1875 0-11.203126-5.015625-11.203126-11.207031v-36.984376h53.894532v36.984376c0 6.191406-5.015625 11.207031-11.203125 11.207031zm0 0" fill="#fddd3a"/><path d="m241.214844 385.023438h-4.832032c-4.019531 0-7.28125-3.261719-7.28125-7.285157v-1.132812h19.394532v1.132812c0 4.023438-3.257813 7.285157-7.28125 7.285157zm0 0" fill="#e7ad27"/><path d="m211.851562 338.652344h53.894532v6.84375h-53.894532zm0 0" fill="#f6ca14"/><path d="m211.851562 355.332031h53.894532v6.847657h-53.894532zm0 0" fill="#f6ca14"/><path d="m248.464844 97.042969v20.847656c0 5.332031-4.335938 9.664063-9.664063 9.664063-5.332031 0-9.667969-4.335938-9.667969-9.664063v-20.847656c0-5.328125 4.335938-9.664063 9.667969-9.664063 5.328125 0 9.664063 4.335938 9.664063 9.664063zm125.484375 125.484375h-20.847657c-5.332031 0-9.667968 4.335937-9.667968 9.667968 0 5.328126 4.335937 9.664063 9.667968 9.664063h20.847657c5.328125 0 9.664062-4.335937 9.664062-9.664063 0-5.332031-4.335937-9.667968-9.664062-9.667968zm-249.445313 0h-20.851562c-5.332032 0-9.667969 4.335937-9.667969 9.667968 0 5.328126 4.335937 9.664063 9.667969 9.664063h20.847656c5.328125 0 9.664062-4.335937 9.664062-9.664063 0-5.332031-4.335937-9.667968-9.660156-9.667968zm195.117188-61.496094c2.476562 0 4.949218-.941406 6.835937-2.828125l14.742188-14.742187c3.765625-3.765626 3.765625-9.898438 0-13.667969-1.828125-1.824219-4.253907-2.832031-6.835938-2.832031s-5.007812 1.007812-6.832031 2.832031l-14.742188 14.742187c-1.828124 1.824219-2.832031 4.25-2.832031 6.832032 0 2.582031 1.007813 5.007812 2.832031 6.835937 1.882813 1.886719 4.355469 2.828125 6.832032 2.828125zm-168.476563 145.148438-14.742187 14.742187c-3.769532 3.769531-3.769532 9.898437 0 13.667969 1.882812 1.882812 4.359375 2.824218 6.832031 2.824218 2.476563 0 4.953125-.941406 6.835937-2.824218l14.742188-14.742188c3.765625-3.769531 3.765625-9.898437 0-13.667968-3.769531-3.769532-9.902344-3.769532-13.667969 0zm175.3125 0c-3.769531-3.769532-9.902343-3.769532-13.667969 0-3.769531 3.769531-3.769531 9.898437 0 13.667968l14.742188 14.742188c1.882812 1.882812 4.355469 2.824218 6.832031 2.824218 2.476563 0 4.949219-.941406 6.835938-2.824218 3.765625-3.769532 3.765625-9.898438 0-13.667969zm-176.386719-176.386719c-1.828124-1.824219-4.253906-2.832031-6.835937-2.832031s-5.007813 1.007812-6.832031 2.832031c-3.769532 3.769531-3.769532 9.902343 0 13.667969l14.742187 14.742187c1.882813 1.886719 4.359375 2.828125 6.832031 2.828125 2.476563 0 4.953126-.941406 6.835938-2.828125 1.824219-1.824219 2.828125-4.25 2.828125-6.832031 0-2.582032-1.003906-5.007813-2.828125-6.835938zm0 0" fill="#fddd3a"/><path d="m164.8125 306.640625-14.742188 14.742187c-1.882812 1.886719-4.359374 2.828126-6.835937 2.828126-2.472656 0-4.949219-.941407-6.832031-2.828126-.074219-.074218-.136719-.15625-.210938-.230468-3.546875 3.785156-3.484375 9.742187.210938 13.4375 1.882812 1.882812 4.359375 2.824218 6.832031 2.824218 2.476563 0 4.953125-.941406 6.835937-2.824218l14.742188-14.742188c3.695312-3.695312 3.753906-9.652344.210938-13.4375-.074219.078125-.136719.15625-.210938.230469zm0 0" fill="#e7ad27"/><path d="m164.8125 145c-1.882812 1.882812-4.359375 2.824219-6.835938 2.824219-2.472656 0-4.949218-.941407-6.832031-2.824219l-14.742187-14.742188c-.074219-.074218-.136719-.15625-.210938-.230468-3.546875 3.78125-3.484375 9.742187.210938 13.433594l14.742187 14.742187c1.882813 1.886719 4.359375 2.828125 6.832031 2.828125 2.476563 0 4.953126-.941406 6.835938-2.828125 1.824219-1.824219 2.828125-4.25 2.828125-6.832031 0-2.476563-.933594-4.808594-2.617187-6.601563-.070313.074219-.136719.15625-.210938.230469zm0 0" fill="#e7ad27"/><path d="m131.539062 225.589844c-1.761718 1.878906-4.261718 3.0625-7.035156 3.0625h-20.851562c-2.777344 0-5.273438-1.183594-7.039063-3.0625-1.625 1.730468-2.625 4.046875-2.625 6.601562 0 5.332032 4.335938 9.667969 9.664063 9.667969h20.851562c5.328125 0 9.660156-4.335937 9.660156-9.667969 0-2.554687-1-4.871094-2.625-6.601562zm0 0" fill="#e7ad27"/><path d="m341.199219 321.386719c-1.886719 1.882812-4.359375 2.824219-6.835938 2.824219-2.476562 0-4.949219-.941407-6.832031-2.824219l-14.742188-14.742188c-.074218-.074219-.140624-.15625-.210937-.234375-3.546875 3.785156-3.484375 9.742188.210937 13.4375l14.742188 14.742188c1.882812 1.882812 4.355469 2.824218 6.832031 2.824218 2.476563 0 4.949219-.941406 6.835938-2.824218 3.691406-3.695313 3.753906-9.652344.207031-13.4375-.070312.078125-.132812.15625-.207031.234375zm0 0" fill="#e7ad27"/><path d="m373.949219 228.652344h-20.847657c-2.777343 0-5.277343-1.183594-7.039062-3.0625-1.625 1.730468-2.625 4.046875-2.625 6.601562 0 5.332032 4.335938 9.667969 9.664062 9.667969h20.847657c5.332031 0 9.667969-4.335937 9.667969-9.667969 0-2.554687-1.003907-4.871094-2.628907-6.601562-1.765625 1.878906-4.265625 3.0625-7.039062 3.0625zm0 0" fill="#e7ad27"/><path d="m319.621094 161.03125c2.476562 0 4.949218-.941406 6.835937-2.828125l14.742188-14.742187c3.691406-3.691407 3.757812-9.652344.207031-13.433594-.070312.074218-.132812.15625-.207031.230468l-14.742188 14.742188c-1.886719 1.882812-4.359375 2.824219-6.835937 2.824219-2.472656 0-4.949219-.941407-6.832032-2.824219-.074218-.074219-.140624-.15625-.210937-.230469-1.6875 1.796875-2.621094 4.125-2.621094 6.601563 0 2.582031 1.007813 5.007812 2.832031 6.832031 1.882813 1.886719 4.355469 2.828125 6.832032 2.828125zm0 0" fill="#e7ad27"/><path d="m238.800781 114.355469c-5.332031 0-9.667969-4.335938-9.667969-9.667969v13.203125c0 5.332031 4.335938 9.664063 9.667969 9.664063 5.328125 0 9.664063-4.335938 9.664063-9.664063v-13.203125c0 5.332031-4.335938 9.667969-9.664063 9.667969zm0 0" fill="#e7ad27"/><path d="m268.769531 220.523438c-.253906-.332032-.523437-.644532-.808593-.945313-.125-.132813-.253907-.261719-.386719-.386719-1.519531-1.449218-3.4375-2.484375-5.570313-2.917968v-28.984376c0-8.78125-7.144531-15.925781-15.925781-15.925781h-14.554687c-8.78125 0-15.921876 7.144531-15.921876 15.925781v28.984376c-2.746093.554687-5.128906 2.101562-6.769531 4.246093-1.460937 1.914063-2.332031 4.304688-2.332031 6.898438v34.015625c0 2.75.972656 5.269531 2.597656 7.234375.464844.5625.980469 1.078125 1.542969 1.542969.980469.8125 2.101563 1.460937 3.324219 1.90625 1.21875.445312 2.535156.6875 3.910156.6875h41.851562c1.375 0 2.695313-.242188 3.910157-.6875 1.222656-.445313 2.34375-1.097657 3.324219-1.90625.140624-.117188.277343-.238282.414062-.359376.269531-.242187.523438-.5.769531-.773437.125-.132813.242188-.269531.359375-.410156 1.621094-1.964844 2.597656-4.484375 2.597656-7.234375v-34.015625c0-2.59375-.871093-4.980469-2.332031-6.894531zm-37.25-40.058594h14.558594c3.761719 0 6.824219 3.0625 6.824219 6.824218v28.753907h-28.207032v-28.753907c0-3.761718 3.0625-6.824218 6.824219-6.824218zm0 0" fill="#bbbdbf"/><path d="m262.003906 232.925781h-9.101562v-50.804687c0-3.761719-3.0625-6.824219-6.824219-6.824219h-14.558594c-3.761719 0-6.824219 3.0625-6.824219 6.824219v50.804687h-9.097656v-50.804687c0-8.777344 7.140625-15.921875 15.921875-15.921875h14.558594c8.78125 0 15.921875 7.144531 15.921875 15.921875v50.804687zm0 0" fill="#fddd3a"/><path d="m246.078125 170.746094h-14.554687c-6.285157 0-11.375 5.09375-11.375 11.375v50.804687h4.550781v-50.804687c0-3.761719 3.0625-6.824219 6.824219-6.824219h14.554687c3.765625 0 6.824219 3.0625 6.824219 6.824219v50.804687h4.550781v-50.804687c0-6.28125-5.09375-11.375-11.375-11.375zm0 0" fill="#f6ca14"/><path d="m259.726562 267.640625h-41.851562c-6.28125 0-11.375-5.089844-11.375-11.371094v-34.015625c0-6.285156 5.09375-11.375 11.375-11.375h41.851562c6.285157 0 11.375 5.089844 11.375 11.375v34.015625c0 6.28125-5.09375 11.371094-11.375 11.371094zm0 0" fill="#fddd3a"/><path d="m259.726562 210.878906h-41.851562c-6.28125 0-11.375 5.089844-11.375 11.375v2.582032c0-6.28125 5.09375-11.375 11.375-11.375h41.851562c6.285157 0 11.375 5.09375 11.375 11.375v-2.582032c0-6.285156-5.09375-11.375-11.375-11.375zm0 0" fill="#fff235"/><path d="m259.726562 259.890625h-41.851562c-6.28125 0-11.375-5.09375-11.375-11.375v7.753906c0 6.28125 5.09375 11.371094 11.375 11.371094h41.851562c6.285157 0 11.375-5.089844 11.375-11.371094v-7.753906c0 6.28125-5.09375 11.375-11.375 11.375zm0 0" fill="#f6ca14"/><path d="m246.503906 232.195312c0-4.253906-3.449218-7.703124-7.703125-7.703124-4.253906 0-7.703125 3.449218-7.703125 7.703124 0 2.996094 1.710938 5.585938 4.207032 6.859376v11.332031c0 1.753906 1.421874 3.171875 3.171874 3.171875h.644532c1.753906 0 3.171875-1.417969 3.171875-3.171875v-11.332031c2.496093-1.273438 4.210937-3.863282 4.210937-6.859376zm0 0" fill="#e7ad27"/><path d="m246.503906 230.128906c0 4.253906-3.449218 7.703125-7.703125 7.703125-4.253906 0-7.703125-3.449219-7.703125-7.703125s3.445313-7.703125 7.703125-7.703125c4.253907 0 7.703125 3.449219 7.703125 7.703125zm0 0" fill="#f6ca14"/><path d="m242.890625 230.128906c0 2.257813-1.832031 4.089844-4.089844 4.089844-2.257812 0-4.089843-1.832031-4.089843-4.089844 0-2.261718 1.832031-4.089844 4.089843-4.089844 2.257813 0 4.089844 1.832032 4.089844 4.089844zm0 0" fill="#e7ad27"/><path d="m239.121094 251.492188h-.644532c-1.75 0-3.171874-1.421876-3.171874-3.171876v-13.71875h6.988281v13.71875c0 1.75-1.417969 3.171876-3.171875 3.171876zm0 0" fill="#f6ca14"/><path d="m238.933594 248.792969h-.269532c-.726562 0-1.320312-.59375-1.320312-1.324219v-14.085938h2.914062v14.085938c0 .730469-.59375 1.324219-1.324218 1.324219zm0 0" fill="#e7ad27"/></svg>