<svg height="477.60001pt" viewBox="0 0 477.60001 477.60001" width="477.60001pt" xmlns="http://www.w3.org/2000/svg"><path d="m477.601562 238.800781c0 131.886719-106.914062 238.800781-238.800781 238.800781s-238.800781-106.914062-238.800781-238.800781 106.914062-238.800781 238.800781-238.800781 238.800781 106.914062 238.800781 238.800781zm0 0" fill="#382b73"/><path d="m445.398438 238.800781c0 114.101563-92.496094 206.597657-206.597657 206.597657-114.101562 0-206.597656-92.496094-206.597656-206.597657 0-114.101562 92.496094-206.597656 206.597656-206.597656 114.101563 0 206.597657 92.496094 206.597657 206.597656zm0 0" fill="#473080"/><path d="m379.5625 135.632812c-.300781-.71875-.875-1.292968-1.59375-1.597656-.359375-.152344-.753906-.234375-1.167969-.234375h-276c-.414062 0-.808593.082031-1.167969.234375-.71875.304688-1.292968.878906-1.597656 1.597656-.152344.359376-.234375.753907-.234375 1.167969v17.398438c0 .414062.082031.808593.234375 1.167969.304688.71875.878906 1.292968 1.597656 1.597656.359376.152344.753907.234375 1.167969.234375h5.605469v192.714843h-6.566406c-.503906 0-.960938.191407-1.316406.492188-.445313.242188-.722657.550781-.722657.890625v8.03125c0 .34375.277344.652344.722657.894531.355468.300782.8125.492188 1.316406.492188h135.226562v24.847656c-8.972656 1.746094-15.765625 9.660156-15.765625 19.136719 0 10.753906 8.746094 19.5 19.5 19.5 10.75 0 19.5-8.746094 19.5-19.5 0-9.476563-6.792969-17.390625-15.765625-19.136719v-24.847656h135.226563c.503906 0 .957031-.191406 1.3125-.492188.449219-.242187.726562-.550781.726562-.894531v-8.03125c0-.339844-.277343-.652344-.726562-.890625-.355469-.300781-.808594-.492188-1.3125-.492188h-6.566407v-192.714843h5.605469c.414063 0 .808594-.082031 1.167969-.234375.71875-.304688 1.292969-.878906 1.59375-1.597656.152344-.355469.238281-.753907.238281-1.167969v-17.398438c0-.414062-.085937-.808593-.238281-1.167969zm-140.761719 276.566407c-4.136719 0-7.5-3.363281-7.5-7.5 0-2.855469 1.605469-5.34375 3.960938-6.609375.359375.828125 1.183593 1.410156 2.144531 1.410156h2.785156c.960938 0 1.785156-.578125 2.144532-1.410156 2.355468 1.265625 3.960937 3.753906 3.960937 6.609375.003906 4.136719-3.359375 7.5-7.496094 7.5zm0 0" fill="#382b73"/><path d="m106.40625 145.199219h264.789062v192.714843h-264.789062zm0 0" fill="#fff"/><path d="m376.800781 145.199219h-276c-1.65625 0-3-1.34375-3-3v-17.398438c0-1.65625 1.34375-3 3-3h276c1.65625 0 3 1.34375 3 3v17.398438c0 1.65625-1.34375 3-3 3zm0 0" fill="#1cade3"/><path d="m376.800781 121.800781h-276c-1.65625 0-3 1.34375-3 3v2.800781c0-1.65625 1.34375-3 3-3h276c1.65625 0 3 1.34375 3 3v-2.800781c0-1.65625-1.34375-3-3-3zm0 0" fill="#23c1e6"/><path d="m376.800781 135.601562h-276c-1.65625 0-3-1.34375-3-3v9.597657c0 1.65625 1.34375 3 3 3h276c1.65625 0 3-1.34375 3-3v-9.597657c0 1.65625-1.34375 3-3 3zm0 0" fill="#0099dc"/><path d="m377.761719 348.714844h-277.921875c-1.128906 0-2.039063-.914063-2.039063-2.039063v-6.722656c0-1.128906.910157-2.039063 2.039063-2.039063h277.921875c1.125 0 2.039062.910157 2.039062 2.039063v6.722656c0 1.125-.914062 2.039063-2.039062 2.039063zm0 0" fill="#1cade3"/><path d="m376.800781 337.914062h-276c-1.65625 0-3 .621094-3 1.382813v1.292969c0-.765625 1.34375-1.382813 3-1.382813h276c1.65625 0 3 .617188 3 1.382813v-1.292969c0-.761719-1.34375-1.382813-3-1.382813zm0 0" fill="#23c1e6"/><path d="m376.800781 344.285156h-276c-1.65625 0-3-.621094-3-1.386718v4.429687c0 .765625 1.34375 1.386719 3 1.386719h276c1.65625 0 3-.621094 3-1.386719v-4.429687c0 .765624-1.34375 1.386718-3 1.386718zm0 0" fill="#0099dc"/><path d="m238.800781 412.199219c-10.753906 0-19.5-8.746094-19.5-19.5 0-10.75 8.746094-19.5 19.5-19.5 10.75 0 19.5 8.75 19.5 19.5 0 10.753906-8.75 19.5-19.5 19.5zm0-27c-4.136719 0-7.5 3.363281-7.5 7.5s3.363281 7.5 7.5 7.5 7.5-3.363281 7.5-7.5-3.363281-7.5-7.5-7.5zm0 0" fill="#fff"/><path d="m238.800781 379.199219c-7.457031 0-13.5 6.042969-13.5 13.5s6.042969 13.5 13.5 13.5 13.5-6.042969 13.5-13.5-6.042969-13.5-13.5-13.5zm0 21c-4.136719 0-7.5-3.363281-7.5-7.5s3.363281-7.5 7.5-7.5 7.5 3.363281 7.5 7.5-3.363281 7.5-7.5 7.5zm0 0" fill="#bbbdbf"/><path d="m240.191406 387.5h-2.785156c-1.292969 0-2.339844-1.046875-2.339844-2.34375v-37.742188c0-1.292968 1.046875-2.34375 2.339844-2.34375h2.785156c1.292969 0 2.34375 1.050782 2.34375 2.34375v37.742188c0 1.296875-1.050781 2.34375-2.34375 2.34375zm0 0" fill="#0099dc"/><path d="m240.191406 381h-2.785156c-1.292969 0-2.339844-1.046875-2.339844-2.34375v6.5c0 1.296875 1.046875 2.34375 2.339844 2.34375h2.785156c1.292969 0 2.34375-1.046875 2.34375-2.34375v-6.5c0 1.296875-1.050781 2.34375-2.34375 2.34375zm0 0" fill="#106ea0"/><path d="m235.066406 348.714844h7.46875v3.410156h-7.46875zm0 0" fill="#106ea0"/><path d="m354.800781 319.398438c0-.253907-.015625-.503907-.039062-.753907-.003907-.070312-.015625-.136719-.023438-.207031-.023437-.21875-.054687-.433594-.097656-.644531-.015625-.085938-.035156-.171875-.054687-.253907-.035157-.15625-.074219-.3125-.117188-.464843-.03125-.113281-.066406-.222657-.105469-.335938-.03125-.09375-.066406-.1875-.101562-.28125-.085938-.230469-.183594-.449219-.285157-.667969-.023437-.050781-.046874-.101562-.074218-.152343-1.378906-2.746094-4.214844-4.636719-7.503906-4.636719h-16v-132.601562c0-1.65625-1.34375-3-3-3h-22.398438c-1.65625 0-3 1.34375-3 3v132.601562h-17.398438v-67.398438c0-.414062-.085937-.808593-.238281-1.167968-.304687-.71875-.878906-1.292969-1.59375-1.597656-.359375-.152344-.753906-.234376-1.167969-.234376h-22.402343c-.414063 0-.808594.082032-1.167969.234376-.71875.304687-1.292969.878906-1.59375 1.597656-.152344.359375-.238281.753906-.238281 1.167968v67.398438h-17.398438v-97.800781c0-1.65625-1.34375-3-3-3h-22.402343c-1.65625 0-3 1.34375-3 3v97.800781h-17.398438v-67.398438c0-.414062-.085938-.808593-.234375-1.167968-.304687-.71875-.878906-1.292969-1.597656-1.597656-.359375-.152344-.753907-.234376-1.167969-.234376h-22.398438c-.414062 0-.808593.082032-1.167968.234376-.71875.304687-1.292969.878906-1.597656 1.597656-.152344.359375-.234376.753906-.234376 1.167968v67.398438h-26.800781v-140.800781c0-4.640625-3.761719-8.398438-8.402343-8.398438-.253907 0-.503907.015625-.753907.039063-.070312.003906-.136719.011718-.207031.019531-.214844.023437-.421875.054687-.628906.097656-.09375.015625-.179688.035157-.269532.058594-.15625.035156-.308593.074219-.460937.117187-.113281.035157-.230469.070313-.347656.109376-.085938.03125-.171875.0625-.257813.097656-.246094.089844-.484375.191406-.714844.300781-.039062.019531-.078124.039063-.117187.058594-2.75 1.378906-4.636719 4.21875-4.636719 7.503906v157.601563h225.398438c1.738281 0 3.355468-.527344 4.695312-1.433594.445313-.304688.863282-.648438 1.246094-1.027344 1.136719-1.140625 1.953125-2.605469 2.289062-4.246094.054688-.277344.097657-.554687.128907-.835937.023437-.285157.039062-.570313.039062-.863281zm0 0" fill="#bbbdbf"/><path d="m137.800781 321.800781h-16.800781v-157.601562c0-4.640625 3.761719-8.398438 8.398438-8.398438 4.640624 0 8.402343 3.757813 8.402343 8.398438zm0 0" fill="#fddd3a"/><path d="m129.398438 155.800781c-1.53125 0-2.960938.414063-4.199219 1.132813 2.507812 1.453125 4.199219 4.160156 4.199219 7.265625v157.597656h8.402343v-157.597656c0-4.640625-3.761719-8.398438-8.402343-8.398438zm0 0" fill="#f6ca14"/><path d="m190 234.601562h-22.398438c-1.65625 0-3 1.34375-3 3v67.398438h28.398438v-67.398438c0-1.65625-1.34375-3-3-3zm0 0" fill="#ee5a9c"/><path d="m190 234.601562h-22.398438c-1.65625 0-3 1.34375-3 3v6c0-1.65625 1.34375-3 3-3h22.398438c1.65625 0 3 1.34375 3 3v-6c0-1.65625-1.34375-3-3-3zm0 0" fill="#ef6ea8"/><path d="m235.800781 204.199219h-22.402343c-1.65625 0-3 1.34375-3 3v97.800781h28.402343v-97.800781c0-1.65625-1.34375-3-3-3zm0 0" fill="#ee5a9c"/><path d="m235.800781 204.199219h-22.402343c-1.65625 0-3 1.34375-3 3v6c0-1.65625 1.34375-3 3-3h22.402343c1.65625 0 3 1.34375 3 3v-6c0-1.65625-1.34375-3-3-3zm0 0" fill="#ef6ea8"/><path d="m281.601562 234.601562h-22.402343c-1.65625 0-3 1.34375-3 3v67.398438h28.402343v-67.398438c0-1.65625-1.34375-3-3-3zm0 0" fill="#ee5a9c"/><path d="m281.601562 234.601562h-22.402343c-1.65625 0-3 1.34375-3 3v6c0-1.65625 1.34375-3 3-3h22.402343c1.65625 0 3 1.34375 3 3v-6c0-1.65625-1.34375-3-3-3zm0 0" fill="#ef6ea8"/><path d="m327.398438 169.398438h-22.398438c-1.65625 0-3 1.34375-3 3v132.601562h28.398438v-132.601562c0-1.65625-1.339844-3-3-3zm0 0" fill="#ee5a9c"/><path d="m327.398438 169.398438h-22.398438c-1.65625 0-3 1.34375-3 3v6c0-1.65625 1.34375-3 3-3h22.398438c1.65625 0 3 1.34375 3 3v-6c0-1.65625-1.339844-3-3-3zm0 0" fill="#ef6ea8"/><g fill="#e43c90"><path d="m164.601562 284.699219h28.398438v20.300781h-28.398438zm0 0"/><path d="m210.398438 284.699219h28.402343v20.300781h-28.402343zm0 0"/><path d="m256.199219 284.699219h28.402343v20.300781h-28.402343zm0 0"/><path d="m302 284.699219h28.398438v20.300781h-28.398438zm0 0"/></g><path d="m121 321.800781v-16.800781h225.398438c4.640624 0 8.402343 3.761719 8.402343 8.398438 0 4.640624-3.761719 8.402343-8.402343 8.402343zm0 0" fill="#f6ca14"/><path d="m346.398438 313.429688h-225.398438v8.371093h225.398438c4.640624 0 8.402343-3.761719 8.402343-8.402343 0-1.523438-.414062-2.949219-1.125-4.183594-1.449219 2.515625-4.160156 4.214844-7.277343 4.214844zm0 0" fill="#e7ad27"/><path d="m106.40625 145.199219h264.789062v5h-264.789062zm0 0" fill="#bbbdbf"/></svg>