<svg height="477.60001pt" viewBox="0 0 477.60001 477.60001" width="477.60001pt" xmlns="http://www.w3.org/2000/svg"><path d="m477.601562 238.800781c0 131.886719-106.914062 238.800781-238.800781 238.800781s-238.800781-106.914062-238.800781-238.800781 106.914062-238.800781 238.800781-238.800781 238.800781 106.914062 238.800781 238.800781zm0 0" fill="#382b73"/><path d="m445.398438 238.800781c0 114.101563-92.496094 206.597657-206.597657 206.597657-114.101562 0-206.597656-92.496094-206.597656-206.597657 0-114.101562 92.496094-206.597656 206.597656-206.597656 114.101563 0 206.597657 92.496094 206.597657 206.597656zm0 0" fill="#473080"/><path d="m359.378906 364.449219c0-.015625.003906-.035157.003906-.050781.03125-.410157.054688-.824219.0625-1.238282 0-.035156.003907-.070312.003907-.109375.003906-.097656.011719-.195312.011719-.292969 0-.058593-.003907-.117187-.003907-.171874 0-.015626 0-.027344 0-.039063-.003906-.222656-.007812-.445313-.019531-.667969 0-.0625 0-.125-.003906-.1875-.003906-.117187-.007813-.230468-.015625-.347656-.003907-.046875-.007813-.097656-.011719-.140625-.015625-.207031-.03125-.410156-.050781-.613281-.007813-.085938-.015625-.175782-.023438-.261719-.007812-.046875-.007812-.097656-.011719-.148437-.003906-.03125-.011718-.058594-.015624-.089844-.011719-.097656-.027344-.191406-.039063-.289063-.023437-.171875-.050781-.339843-.078125-.511719-.015625-.105468-.027344-.214843-.046875-.320312-.007813-.046875-.015625-.09375-.023437-.144531-.03125-.167969-.074219-.339844-.109376-.511719-.023437-.121094-.050781-.246094-.074218-.367188-.027344-.109374-.042969-.21875-.070313-.328124-.003906-.015626-.007812-.027344-.007812-.042969-.003907-.007813-.003907-.015625-.007813-.023438-.085937-.347656-.183594-.699219-.289062-1.050781-.019532-.074219-.039063-.152344-.0625-.230469l-22.210938-72.363281c-2.214844-7.222656-8.007812-12.691406-15.183594-14.582031-.90625-.238281-1.832031-.429688-2.78125-.550781l-6.871093-.90625-30.167969-3.984376h-.007812l-.039063-.007812c.167969-1.21875-.175781-2.503906-1.070313-3.503906l-10.480468-11.675782c-1.234375-1.378906-3.207032-1.824218-4.914063-1.117187l-.65625.273437v-10.242187c1.066407-.695313 2.109375-1.429687 3.128907-2.210937 1.429687-1.089844 2.808593-2.261719 4.136718-3.507813.664063-.621094 1.316406-1.261719 1.953125-1.921875.910157-.941406 1.796875-1.921875 2.652344-2.933594.09375-.113281.191406-.230468.289063-.34375.472656-.574218.941406-1.15625 1.398437-1.746094.429687-.5625.851563-1.128906 1.265625-1.707031.578125-.804687 1.132812-1.625 1.679688-2.464843.671874-1.039063 1.320312-2.101563 1.9375-3.195313.238281-.417969.472656-.839844.699218-1.265625.304688-.566406.597656-1.140625.886719-1.71875.296875-.585938.582031-1.179688.855469-1.777344.273437-.585937.539062-1.175781.796875-1.769531.386719-.90625.757812-1.820313 1.109375-2.75.386718-1.019531.75-2.054687 1.089844-3.097656.308593.078125.621093.144531.941406.1875 5.84375.820312 11.425781-4.503907 12.457031-11.894531.765625-5.464844-1.171875-10.53125-4.601563-13.125l52.617188-30.542969v-4.316407l-110.605469-64.199218-79.636719 46.222656-6.621093-1.359375.003906.007813c-.78125-.183594-1.640625-.089844-2.433594.367187-1.039062.601563-1.675781 1.710937-1.675781 2.910156v4.300781l-20.246094 11.75v4.316407l20.246094 11.75v18.988281h-.945312c-1.113282 0-2.042969.742188-2.355469 1.753906-.03125.105469-.0625.210938-.078125.324219-.023438.128906-.039063.257813-.039063.394531 0 .824219.40625 1.550782 1.023438 2 .410156.292969.90625.476563 1.449219.476563h.980468c-1.015625.910156-1.65625 2.230469-1.65625 3.703125v13.480468h9.96875v-13.480468c0-1.472656-.644531-2.792969-1.660156-3.703125h.984375c.960937 0 1.789063-.558594 2.199219-1.367188.046875-.09375.089844-.191406.125-.289062.089844-.257813.152344-.53125.152344-.820313 0-.136718-.019532-.265625-.042969-.394531-.1875-1.175781-1.203125-2.078125-2.433594-2.078125h-.945313v-15.078125l25.644532 14.882813c-3.429688 2.59375-5.371094 7.65625-4.605469 13.125 1.035156 7.390624 6.613281 12.714843 12.460937 11.894531.320313-.042969.632813-.109375.941407-.1875.183593.570312.375 1.136719.574219 1.695312.5 1.410157 1.042968 2.796875 1.625 4.152344.972656 2.257813 2.054687 4.4375 3.238281 6.53125.472656.835937.964843 1.65625 1.472656 2.464844 4.519531 7.210937 10.308594 13.21875 16.972656 17.570312v10.238281l-.65625-.273437c-1.710937-.707031-3.679687-.257813-4.917969 1.121094l-10.476562 11.675781c-.894531.996094-1.238281 2.285156-1.070312 3.503906l-26.039063 3.4375-11.046875 1.460938c-1.796875.230468-3.519531.6875-5.15625 1.328125-2.691406 1.054687-5.140625 2.625-7.191406 4.617187-.015625.015625-.03125.03125-.042969.046875-2.542969 2.484375-4.488281 5.601563-5.574219 9.136719l-22.210937 72.367188c0 .007812-.003907.015624-.003907.023437-.128906.417969-.246093.839844-.347656 1.257813-.007812.019531-.011718.042968-.015625.0625-.023437.109374-.042969.222656-.066406.332031-.023437.09375-.042969.1875-.0625.285156-.042969.199219-.089844.398437-.125.59375-.007813.050781-.015625.097656-.023437.144531-.019532.105469-.03125.214844-.050782.320313-.023437.15625-.046875.308593-.066406.464843-.015625.113282-.035156.222657-.050781.335938-.007813.082031-.015625.160156-.023438.238281-.011719.085938-.015625.171875-.023437.257813-.019532.195312-.035156.390625-.050782.585937-.003906.054688-.011718.113281-.011718.171875-.007813.113282-.011719.230469-.019532.34375 0 .0625 0 .125-.003906.1875-.007812.214844-.015625.429688-.015625.644532v.066406c0 .152344.003907.304687.003907.460937 0 .039063.003906.074219.003906.109375.011718.414063.03125.828125.066406 1.234375 0 .019531.003906.035157.003906.054688.035156.425781.082032.851562.144532 1.273437 0 .003906.003906.007813.003906.011719.023437.171875.050781.34375.078125.511719v.003906c.042969.257812.09375.515625.148437.773438.644532 3.089843 1.949219 5.980468 3.796875 8.480468.730469.984375 1.542969 1.910156 2.425781 2.765625.03125.023438.058594.046875.082032.074219.273437.257812.546875.511719.828125.753906.253906.214844.515625.421875.777343.628906.152344.117188.304688.234376.460938.347657.238281.179687.476562.355469.722656.523437.34375.230469.691406.453125 1.046875.664063 1.195313.710937 2.464844 1.304687 3.800781 1.777343.550782.195313 1.109376.371094 1.679688.519532 1.773438.472656 3.648438.730468 5.59375.730468h197.96875c3.183594 0 6.175781-.671874 8.851562-1.875 5.742188-2.566406 10.0625-7.550781 11.882813-13.472656.191406-.628906.347656-1.269531.480469-1.917968.09375-.425782.167968-.859376.230468-1.292969 0 0 0-.003907 0-.007813.066407-.417968.117188-.84375.152344-1.273437zm-204.210937-234.597657 2.996093-1.742187zm0 0" fill="#382b73"/><path d="m128.191406 133.507812v4.316407l110.609375-64.199219v-4.316406zm0 0" fill="#ee5a9c"/><path d="m349.410156 137.824219-110.609375 64.203125-110.609375-64.203125 110.609375-64.199219zm0 0" fill="#a62973"/><path d="m213.488281 209.089844h50.621094v50.617187h-50.621094zm0 0" fill="#e7ad27"/><path d="m197.378906 178.527344c1.035156 7.386718-2.863281 14.039062-8.714844 14.859375-5.84375.820312-11.425781-4.503907-12.460937-11.890625-1.035156-7.386719 2.863281-14.039063 8.710937-14.859375 5.851563-.820313 11.429688 4.503906 12.464844 11.890625zm0 0" fill="#f6ca14"/><path d="m280.222656 178.527344c-1.035156 7.386718 2.863282 14.039062 8.710938 14.859375 5.847656.820312 11.425781-4.503907 12.460937-11.890625 1.039063-7.386719-2.863281-14.039063-8.710937-14.859375-5.847656-.820313-11.425782 4.503906-12.460938 11.890625zm0 0" fill="#f6ca14"/><path d="m291.566406 170.414062c0 34.734376-23.625 62.894532-52.765625 62.894532-29.144531 0-52.765625-28.160156-52.765625-62.894532 0-34.734374 23.621094-55.578124 52.765625-55.578124 29.140625 0 52.765625 20.839843 52.765625 55.578124zm0 0" fill="#fddd3a"/><path d="m238.800781 227.855469c-28.371093 0-51.507812-26.695313-52.707031-60.160157-.035156.898438-.058594 1.796876-.058594 2.714844 0 34.738282 23.621094 62.898438 52.765625 62.898438 29.140625 0 52.765625-28.160156 52.765625-62.898438 0-.917968-.027344-1.816406-.058594-2.714844-1.203124 33.464844-24.335937 60.160157-52.707031 60.160157zm0 0" fill="#f6ca14"/><path d="m291.425781 174.789062c-1.765625-29.867187-21.632812-48.484374-46.855469-50.941406-.347656 2.375-.535156 4.804688-.535156 7.277344 0 26.488281 20.703125 48.117188 46.808594 49.644531.269531-1.964843.464844-3.960937.582031-5.980469zm0 0" fill="#f6ca14"/><path d="m337.78125 372.292969h-197.964844c-14.566406 0-24.980468-14.09375-20.707031-28.019531l22.207031-72.367188c2.496094-8.132812 9.527344-14.050781 17.96875-15.128906l79.515625-10.5 79.519531 10.5c8.441407 1.078125 15.46875 6.996094 17.964844 15.128906l22.210938 72.367188c4.269531 13.925781-6.144532 28.019531-20.714844 28.019531zm0 0" fill="#e6e7e8"/><path d="m253.21875 271.453125-11.222656 11.222656c-1.765625 1.765625-4.625 1.765625-6.390625 0l-11.222657-11.222656c-1.765624-1.765625-1.765624-4.628906 0-6.394531l11.222657-11.222656c1.765625-1.765626 4.625-1.765626 6.390625 0l11.222656 11.222656c1.765625 1.765625 1.765625 4.628906 0 6.394531zm0 0" fill="#d0d2d3"/><path d="m119.109375 353 22.207031-72.363281c2.496094-8.132813 9.527344-14.054688 17.96875-15.132813l79.515625-10.5 79.519531 10.5c8.441407 1.078125 15.46875 7 17.964844 15.132813l22.210938 72.363281c.207031.675781.371094 1.351562.511718 2.027344.710938-3.425782.613282-7.09375-.511718-10.753906l-22.210938-72.363282c-2.496094-8.132812-9.523437-14.054687-17.964844-15.132812l-79.519531-10.5-79.519531 10.5c-8.4375 1.078125-15.46875 6.996094-17.964844 15.128906l-22.210937 72.367188c-1.125 3.660156-1.222657 7.328124-.507813 10.75.140625-.671876.300782-1.347657.511719-2.023438zm0 0" fill="#fff"/><g fill="#d0d2d3"><path d="m238.800781 246.328125-17.152343 24.023437c-2.089844 2.921876-6.355469 3.136719-8.726563.4375l-16.597656-18.90625zm0 0"/><path d="m238.800781 246.328125 17.152344 24.023437c2.085937 2.921876 6.355469 3.136719 8.726563.4375l16.597656-18.90625zm0 0"/><path d="m357.703125 341.699219c-3.265625 7.582031-10.773437 13.140625-19.921875 13.140625h-197.964844c-9.144531 0-16.65625-5.558594-19.917968-13.140625l-.789063 2.574219c-4.273437 13.925781 6.140625 28.019531 20.707031 28.019531h197.964844c14.570312 0 24.984375-14.09375 20.710938-28.019531zm0 0"/></g><path d="m186.035156 170.414062c0 2.859376.175782 5.664063.484375 8.425782 4.925781 1.316406 10.09375 2.035156 15.4375 2.035156 33.039063 0 59.824219-26.785156 59.824219-59.828125 0-.460937-.023438-.921875-.035156-1.386719-6.9375-3.164062-14.722656-4.824218-22.945313-4.824218-29.144531 0-52.765625 20.839843-52.765625 55.578124zm0 0" fill="#f6ca14"/><path d="m186.09375 167.628906c6.304688 2.890625 13.3125 4.515625 20.707031 4.515625 27.472657 0 49.746094-22.273437 49.746094-49.746093 0-1.632813-.085937-3.25-.238281-4.84375-5.480469-1.785157-11.367188-2.71875-17.507813-2.71875-28.355469 0-51.476562 19.730468-52.707031 52.792968zm0 0" fill="#0099dc"/><path d="m238.800781 123.5625c6.136719 0 12.027344.9375 17.507813 2.722656.015625.160156.019531.324219.035156.488282.125-1.445313.203125-2.898438.203125-4.375 0-1.632813-.085937-3.25-.238281-4.84375-5.480469-1.78125-11.367188-2.71875-17.507813-2.71875-28.355469 0-51.476562 19.730468-52.707031 52.792968.273438.125.550781.234375.828125.351563 4.503906-27.984375 26.011719-44.417969 51.878906-44.417969zm0 0" fill="#1cade3"/><path d="m244.570312 115.121094c-.347656 2.375-.535156 4.808594-.535156 7.277344 0 26.71875 21.066406 48.511718 47.496094 49.691406.011719-.558594.035156-1.117188.035156-1.679688 0-32.40625-20.570312-52.714844-46.996094-55.289062zm0 0" fill="#1cade3"/><path d="m244.570312 123.847656c24.445313 2.382813 43.867188 19.945313 46.640626 48.21875.105468.003906.214843.019532.320312.023438.011719-.558594.035156-1.117188.035156-1.679688 0-32.40625-20.570312-52.714844-46.996094-55.289062-.347656 2.375-.535156 4.804687-.535156 7.277344 0 1.472656.074219 2.925781.199219 4.371093.089844-.980469.195313-1.957031.335937-2.921875zm0 0" fill="#23c1e6"/><path d="m258.070312 265.546875c1.503907 1.5 3.871094 1.699219 5.605469.46875l15.78125-11.179687c2.109375-1.515626 2.441407-4.53125.703125-6.464844l-10.476562-11.675782c-1.238282-1.378906-3.207032-1.824218-4.917969-1.117187l-25.964844 10.75zm0 0" fill="#fff"/><path d="m219.53125 265.546875c-1.503906 1.5-3.871094 1.699219-5.605469.46875l-15.78125-11.179687c-2.113281-1.515626-2.441406-4.53125-.707031-6.464844l10.480469-11.675782c1.234375-1.378906 3.207031-1.824218 4.917969-1.117187l25.964843 10.75zm0 0" fill="#fff"/><path d="m219.0625 372.292969 13.511719-109.527344h12.449219l13.511718 109.527344zm0 0" fill="#0099dc"/><path d="m297.734375 312.726562h-31.65625c-2.414063 0-4.367187-1.957031-4.367187-4.367187 0-2.414063 1.953124-4.371094 4.367187-4.371094h31.65625c2.414063 0 4.371094 1.957031 4.371094 4.371094 0 2.410156-1.957031 4.367187-4.371094 4.367187zm0 0" fill="#d0d2d3"/><path d="m152.617188 372.292969 9.402343-52.007813c.355469-1.953125 3.175781-1.894531 3.445313.070313l7.226562 51.9375zm0 0" fill="#d0d2d3"/><path d="m324.980469 372.292969-9.402344-52.007813c-.351563-1.953125-3.171875-1.894531-3.445313.070313l-7.222656 51.9375zm0 0" fill="#d0d2d3"/><path d="m230.890625 279.707031 4.714844 4.714844c1.765625 1.765625 4.625 1.765625 6.390625 0l4.714844-4.714844-1.6875-16.945312h-12.449219zm0 0" fill="#106ea0"/><path d="m253.21875 267.089844-11.222656 11.222656c-1.765625 1.765625-4.625 1.765625-6.390625 0l-11.222657-11.222656c-1.765624-1.765625-1.765624-4.628906 0-6.394532l11.222657-11.222656c1.765625-1.765625 4.625-1.765625 6.390625 0l11.222656 11.222656c1.765625 1.765626 1.765625 4.628907 0 6.394532zm0 0" fill="#1cade3"/><path d="m244.285156 201.617188-4.105468 4.101562c-.761719.761719-1.996094.761719-2.757813 0l-4.105469-4.101562c-1.230468-1.230469-.359375-3.332032 1.378906-3.332032h8.207032c1.738281 0 2.613281 2.101563 1.382812 3.332032zm0 0" fill="#f6ca14"/><path d="m221.195312 355.027344-2.132812 17.265625h39.472656l-2.128906-17.265625zm0 0" fill="#106ea0"/><path d="m291.464844 166.542969c0-8.300781-23.578125-15.027344-52.664063-15.027344-29.085937 0-52.667969 6.726563-52.667969 15.027344v-38.210938c0-8.300781 23.582032-15.027343 52.667969-15.027343 29.085938 0 52.664063 6.726562 52.664063 15.027343zm0 0" fill="#ef6ea8"/><path d="m209.871094 115.777344c-14.296875 2.6875-23.738282 7.308594-23.738282 12.558594v38.207031c0-5.25 9.441407-9.867188 23.738282-12.554688zm0 0" fill="#ee5a9c"/><path d="m267.730469 115.777344v38.210937c14.292969 2.6875 23.734375 7.304688 23.734375 12.554688v-38.210938c0-5.25-9.4375-9.867187-23.734375-12.554687zm0 0" fill="#ee5a9c"/><path d="m349.410156 133.507812v4.316407l-110.609375-64.199219v-4.316406zm0 0" fill="#ef6ea8"/><path d="m358.492188 344.273438-22.210938-72.367188c-2.496094-8.132812-9.523438-14.050781-17.964844-15.128906l-24.71875-3.265625-54.796875 85.445312-54.796875-85.445312-24.722656 3.261719c-8.4375 1.078124-15.46875 7-17.964844 15.132812l-22.210937 72.363281c-4.273438 13.929688 6.140625 28.019531 20.710937 28.019531h197.964844c14.570312.003907 24.984375-14.089843 20.710938-28.015624zm0 0" fill="#ee5a9c"/><path d="m119.109375 351.464844 22.207031-72.363282c2.496094-8.132812 9.527344-14.054687 17.96875-15.132812l24.71875-3.261719 54.796875 85.445313 54.796875-85.449219 24.71875 3.265625c8.441406 1.078125 15.46875 6.996094 17.964844 15.132812l22.210938 72.363282c.285156.929687.5 1.859375.65625 2.785156.546874-3.199219.382812-6.597656-.65625-9.980469l-22.210938-72.363281c-2.496094-8.132812-9.523438-14.054688-17.964844-15.132812l-24.71875-3.261719-54.796875 85.445312-54.796875-85.445312-24.722656 3.261719c-8.4375 1.078124-15.46875 7-17.964844 15.132812l-22.210937 72.363281c-1.039063 3.386719-1.203125 6.78125-.65625 9.980469.160156-.925781.371093-1.855469.660156-2.785156zm0 0" fill="#ef6ea8"/><path d="m356.929688 339.171875c-3.585938 6.75-10.65625 11.535156-19.144532 11.535156h-197.96875c-8.488281 0-15.558594-4.785156-19.140625-11.535156l-1.566406 5.101563c-4.273437 13.925781 6.140625 28.019531 20.707031 28.019531h197.964844c14.570312 0 24.984375-14.09375 20.710938-28.019531zm0 0" fill="#e43c90"/><path d="m151.804688 172.894531c-1.859376 0-3.367188-1.503906-3.367188-3.363281v-52.070312c0-1.199219.636719-2.308594 1.675781-2.910157 2.246094-1.304687 5.054688.316407 5.054688 2.910157v52.070312c0 1.859375-1.507813 3.363281-3.363281 3.363281zm0 0" fill="#fddd3a"/><path d="m155.167969 117.460938c0-1.296876-.699219-2.347657-1.683594-2.914063 0 0-.003906 0-.003906.003906-1.039063.601563-1.675781 1.710938-1.675781 2.910157v52.070312c0 1.242188.679687 2.316406 1.679687 2.898438 1.003906-.582032 1.683594-1.65625 1.683594-2.898438zm0 0" fill="#f6ca14"/><path d="m152.542969 114.175781 6.621093 1.355469-3.996093 2.320312zm0 0" fill="#fddd3a"/><path d="m156.113281 173.511719h-8.621093c-1.363282 0-2.472657-1.109375-2.472657-2.472657 0-1.367187 1.109375-2.476562 2.472657-2.476562h8.621093c1.363281 0 2.472657 1.109375 2.472657 2.476562 0 1.363282-1.109376 2.472657-2.472657 2.472657zm0 0" fill="#f6ca14"/><path d="m153.628906 173.511719h-3.648437c-1 0-1.8125-.808594-1.8125-1.8125v-1.324219c0-1 .808593-1.8125 1.8125-1.8125h3.648437c1 0 1.8125.8125 1.8125 1.8125v1.324219c-.003906 1-.8125 1.8125-1.8125 1.8125zm0 0" fill="#fddd3a"/><path d="m156.789062 190.695312h-9.96875v-13.480468c0-2.75 2.230469-4.984375 4.984376-4.984375 2.75 0 4.984374 2.234375 4.984374 4.984375zm0 0" fill="#f6ca14"/><path d="m154.148438 190.695312h-4.691407v-16.117187c0-1.296875 1.050781-2.347656 2.347657-2.347656 1.296874 0 2.34375 1.050781 2.34375 2.347656zm0 0" fill="#fddd3a"/><path d="m156.113281 172.070312h-8.621093c-1.113282 0-2.042969-.742187-2.355469-1.753906-.070313.230469-.117188.46875-.117188.722656 0 1.363282 1.109375 2.472657 2.472657 2.472657h8.621093c1.363281 0 2.472657-1.109375 2.472657-2.472657 0-.253906-.046876-.492187-.117188-.722656-.3125 1.011719-1.242188 1.753906-2.355469 1.753906zm0 0" fill="#f6ca14"/><path d="m153.03125 114.859375 5.476562 1.050781-3.339843 1.941406zm0 0" fill="#f6ca14"/><path d="m242.40625 372.292969-74.085938-116.710938-9.039062 1.195313c-5.761719.734375-10.867188 3.730468-14.316406 8.148437l68.453125 107.367188zm0 0" fill="#fddd3a"/><path d="m213.414062 372.292969h28.992188l-13.699219-21.582031h-29.050781zm0 0" fill="#e7ad27"/><path d="m235.191406 372.292969 74.089844-116.710938 9.039062 1.195313c5.765626.734375 10.867188 3.730468 14.316407 8.148437l-68.453125 107.367188zm0 0" fill="#fddd3a"/><path d="m238.800781 372.292969h25.382813l13.761718-21.582031h-29.054687l-13.699219 21.582031zm0 0" fill="#e7ad27"/></svg>