<svg height="477.60001pt" viewBox="0 0 477.60001 477.60001" width="477.60001pt" xmlns="http://www.w3.org/2000/svg"><path d="m477.601562 238.800781c0 131.886719-106.914062 238.800781-238.800781 238.800781s-238.800781-106.914062-238.800781-238.800781 106.914062-238.800781 238.800781-238.800781 238.800781 106.914062 238.800781 238.800781zm0 0" fill="#382b73"/><path d="m445.398438 238.800781c0 114.101563-92.496094 206.597657-206.597657 206.597657-114.101562 0-206.597656-92.496094-206.597656-206.597657 0-114.101562 92.496094-206.597656 206.597656-206.597656 114.101563 0 206.597657 92.496094 206.597657 206.597656zm0 0" fill="#473080"/><path d="m355.199219 151.007812h-232.796875c-8.640625 0-15.644532 7.003907-15.644532 15.644532v156.449218c0 8.640626 7.003907 15.644532 15.644532 15.644532h86.773437l-12.519531 12.515625-21.957031 21.957031c-2.355469 2.355469-3.128907 5.695312-2.324219 8.703125.046875.171875.097656.335937.152344.503906.015625.046875.035156.101563.054687.148438.089844.253906.1875.503906.300781.75.042969.09375.082032.1875.128907.28125.058593.113281.117187.230469.179687.339843.082032.148438.167969.292969.257813.4375.054687.082032.105469.164063.160156.246094.125.1875.261719.375.40625.554688.046875.058594.09375.117187.140625.175781.171875.203125.351562.40625.542969.597656.222656.222657.449219.425781.683593.617188.472657.386719.976563.714843 1.496094.992187.523438.273438 1.070313.492188 1.628906.660156.835938.246094 1.699219.371094 2.5625.371094.289063 0 .578126-.011718.867188-.042968.285156-.027344.574219-.066407.855469-.121094 1.703125-.332032 3.332031-1.15625 4.652343-2.476563l47.214844-47.214843h8.285156l47.214844 47.214843c1.320313 1.320313 2.945313 2.144531 4.648438 2.476563.570312.109375 1.144531.164062 1.722656.164062.863281 0 1.730469-.125 2.566406-.375.554688-.164062 1.101563-.382812 1.625-.660156.523438-.273438 1.023438-.601562 1.496094-.988281.234375-.191407.464844-.398438.683594-.617188.195312-.195312.371094-.398437.546875-.605469.042969-.054687.089843-.109374.132812-.160156.15625-.203125.308594-.402344.449219-.613281.039062-.054687.070312-.113281.105469-.171875.097656-.15625.191406-.3125.28125-.472656.050781-.09375.101562-.191406.152343-.285156.085938-.175782.167969-.351563.242188-.527344.058594-.136719.113281-.277344.164062-.414063.035157-.101562.070313-.199219.101563-.300781.046875-.132812.089844-.269531.128906-.402344.839844-3.03125.074219-6.410156-2.304687-8.789062l-21.957032-21.957032-12.515624-12.519531h86.769531c8.640625 0 15.648437-7.003906 15.648437-15.640625v-156.449218c-.003906-8.636719-7.007812-15.640626-15.648437-15.640626zm0 0" fill="#382b73"/><path d="m174.699219 373.960938c-3.515625-3.515626-3.515625-9.222657 0-12.742188l57.34375-57.339844c3.515625-3.519531 9.222656-3.519531 12.742187 0 3.515625 3.515625 3.515625 9.222656 0 12.742188l-57.34375 57.339844c-3.515625 3.519531-9.222656 3.519531-12.742187 0zm0 0" fill="#fddd3a"/><path d="m244.785156 303.875c-1.160156-1.160156-2.5625-1.929688-4.039062-2.324219.804687 3.007813.035156 6.347657-2.324219 8.707031l-57.34375 57.339844c-2.355469 2.359375-5.695313 3.128906-8.703125 2.324219.394531 1.476563 1.164062 2.878906 2.324219 4.039063 3.515625 3.515624 9.222656 3.515624 12.742187 0l57.339844-57.34375c3.519531-3.515626 3.519531-9.222657.003906-12.742188zm0 0" fill="#f6ca14"/><path d="m302.898438 373.960938c3.519531-3.515626 3.519531-9.222657 0-12.742188l-57.339844-57.339844c-3.519532-3.519531-9.222656-3.519531-12.742188 0-3.519531 3.515625-3.519531 9.222656 0 12.742188l57.339844 57.339844c3.523438 3.519531 9.226562 3.519531 12.742188 0zm0 0" fill="#fddd3a"/><path d="m296.414062 367.703125-57.339843-57.339844c-2.378907-2.382812-3.144531-5.761719-2.304688-8.789062-1.449219.402343-2.816406 1.164062-3.953125 2.304687-3.519531 3.515625-3.519531 9.222656 0 12.742188l57.339844 57.339844c3.519531 3.519531 9.226562 3.519531 12.742188 0 1.140624-1.136719 1.902343-2.503907 2.304687-3.953126-3.023437.839844-6.40625.078126-8.789063-2.304687zm0 0" fill="#f6ca14"/><path d="m245.558594 303.875c-1.855469-1.855469-4.324219-2.722656-6.757813-2.617188-2.433593-.105468-4.902343.761719-6.761719 2.617188l-35.382812 35.386719h25.484375l16.660156-16.660157 16.65625 16.660157h25.488281zm0 0" fill="#e7ad27"/><path d="m355.199219 326.742188h-232.796875c-8.640625 0-15.644532-7.003907-15.644532-15.640626v-156.453124c0-8.636719 7.003907-15.644532 15.644532-15.644532h232.796875c8.640625 0 15.644531 7.003906 15.644531 15.644532v156.453124c0 8.636719-7.003906 15.640626-15.644531 15.640626zm0 0" fill="#d0d2d3"/><path d="m351.863281 317.359375h-226.125c-5.644531 0-10.222656-4.578125-10.222656-10.222656v-148.523438c0-5.644531 4.578125-10.222656 10.222656-10.222656h226.121094c5.644531 0 10.222656 4.578125 10.222656 10.222656v148.523438c0 5.644531-4.574219 10.222656-10.21875 10.222656zm0 0" fill="#fff"/><g fill="#d0d2d3"><path d="m293.695312 239.652344 10.902344 2.925781c.46875.125.933594.179687 1.378906.167969.226563-.007813.445313-.027344.660157-.0625.21875-.039063.425781-.089844.632812-.15625 1.019531-.324219 1.894531-.996094 2.492188-1.863282.355469-.519531.613281-1.113281.742187-1.742187.039063-.210937.070313-.429687.082032-.644531.015624-.21875.011718-.441406-.007813-.664063-.039063-.445312-.140625-.902343-.316406-1.355469l-.382813-.984374-15.96875-41.074219c-1.167968-2.996094-4.902344-4-7.414062-1.988281l-34.375 27.570312-.824219.664062c-.570313.457032-1 1-1.289063 1.585938-.785156 1.5625-.613281 3.4375.347657 4.839844.121093.175781.253906.34375.398437.5.574219.636718 1.347656 1.128906 2.285156 1.382812l15.734376 4.21875c-18.472657 39.316406-63.089844 61.050782-106.484376 49.414063-4.78125-1.28125-9.699218 1.554687-10.984374 6.339843-.527344 1.960938-.351563 3.941407.359374 5.6875.011719.03125.023438.058594.035157.089844.082031.191406.167969.375.257812.558594.027344.054688.054688.105469.082031.15625.089844.171875.179688.339844.28125.503906.039063.058594.078126.117188.117188.175782.097656.15625.199219.3125.308594.464843.042968.054688.089844.109375.132812.164063.195313.253906.402344.496094.625.726562.078125.082032.152344.167969.234375.25.09375.085938.191407.167969.289063.253906.105468.097657.214844.195313.328125.285157.097656.074219.195312.148437.292969.21875.125.09375.25.183593.378906.269531.097656.0625.199218.125.296875.1875.144531.085938.289062.164062.433593.242188.097657.054687.195313.105468.292969.152343.167969.082031.339844.15625.511719.226563.089844.035156.171875.070312.261719.105468.265625.097657.535156.1875.8125.265626 28.25 7.574218 57.742187 3.707031 83.042969-10.890626 20.574218-11.871093 36.390624-29.699218 45.65625-51.132812zm0 0"/><path d="m336.371094 301.34375c.050781-.074219.097656-.144531.144531-.222656.089844-.140625.171875-.277344.25-.421875.039063-.074219.082031-.144531.121094-.21875.105469-.203125.203125-.410157.289062-.621094.03125-.078125.054688-.15625.085938-.234375.050781-.140625.105469-.28125.148437-.425781.035156-.109375.0625-.222657.09375-.335938.027344-.105469.054688-.21875.082032-.324219.027343-.128906.050781-.253906.074218-.382812.015625-.085938.027344-.175781.039063-.265625.070312-.519531.09375-1.046875.0625-1.570313-.003907-.03125-.003907-.0625-.003907-.09375-.015624-.179687-.035156-.359374-.058593-.535156-.003907-.035156-.007813-.070312-.011719-.101562-.121094-.792969-.355469-1.570313-.710938-2.308594-.382812-.796875-.898437-1.546875-1.554687-2.207031l-10-10 10-10c.179687-.179688.34375-.367188.503906-.558594.050781-.0625.097657-.125.144531-.1875.109376-.132813.207032-.269531.304688-.40625.050781-.074219.097656-.148437.148438-.222656.085937-.140625.167968-.28125.25-.421875.039062-.074219.082031-.144532.117187-.21875.105469-.203125.203125-.410156.292969-.621094.03125-.078125.054687-.15625.085937-.234375.050781-.140625.101563-.277344.144531-.421875.035157-.109375.0625-.222656.09375-.335938.027344-.109374.054688-.21875.082032-.328124.027344-.125.050781-.25.074218-.378907.015626-.089843.027344-.175781.039063-.265625.070313-.523437.09375-1.050781.0625-1.574218-.003906-.03125-.003906-.0625-.003906-.09375-.015625-.179688-.035157-.359376-.058594-.535157-.003906-.035156-.007813-.066406-.011719-.101562-.246094-1.652344-.996094-3.242188-2.269531-4.515625-3.152344-3.152344-8.269531-3.152344-11.425781 0l-10 10-10-10c-3.152344-3.152344-8.265625-3.152344-11.421875 0-.660157.660156-1.175781 1.410156-1.558594 2.207031-.355469.738281-.589844 1.515625-.710937 2.304687-.003907.035157-.007813.070313-.011719.105469-.023438.175781-.046875.355469-.058594.535157 0 .03125 0 .0625-.003906.09375-.027344.527343-.007813 1.050781.0625 1.570312.011719.089844.023437.179688.039062.265625.023438.128906.046875.253906.074219.382813.027344.109374.050781.21875.082031.324218.03125.109375.058594.222656.09375.335938.042969.144531.097657.28125.148438.421875.03125.078125.054687.160156.085937.234375.085938.210937.183594.417968.289063.625.039062.070312.082031.144531.121093.214844.078126.144531.160157.285156.25.425781.046876.074219.09375.148437.144532.222656.097656.136719.199218.273437.304687.410156.046875.0625.09375.125.144531.1875.160157.191407.328126.378907.507813.554688l10 10-10 10c-.660156.660156-1.175781 1.410156-1.558594 2.207031v.003906c-.355469.734375-.589843 1.511719-.707031 2.304688-.007812.035156-.011719.066406-.015625.101562-.023437.179688-.042969.355469-.054687.535156-.003907.035157-.003907.066407-.003907.097657-.03125.523437-.011719 1.050781.0625 1.570312.011719.089844.023438.175781.039063.265625.019531.128906.046875.253906.074218.378906.023438.109376.050782.21875.078126.328126.03125.109374.0625.226562.097656.335937.042968.140625.09375.28125.144531.421875.03125.078125.054687.15625.085937.234375.085938.210937.1875.417969.292969.625.035157.070313.078125.144531.117188.214844.082031.144531.164062.285156.25.425781.050781.074219.097656.148438.148437.222656.09375.136719.195313.277344.304688.410156.046875.0625.09375.125.144531.1875.160156.191407.324219.378907.507813.558594 3.152343 3.152344 8.265624 3.152344 11.421874 0l10-10 10 10c3.152344 3.152344 8.269532 3.152344 11.425782 0 .179687-.179687.34375-.367187.503906-.558594.050781-.0625.097656-.125.148438-.1875.089843-.136718.1875-.273437.285156-.414062zm0 0"/><path d="m166.304688 250.554688 10 10c3.15625 3.15625 8.269531 3.15625 11.425781 0 .179687-.179688.34375-.367188.503906-.558594.050781-.058594.101563-.125.148437-.1875.105469-.132813.207032-.269532.300782-.410156.050781-.074219.101562-.148438.144531-.222657.089844-.140625.175781-.28125.25-.421875.042969-.074218.082031-.144531.121094-.21875.105469-.203125.203125-.410156.289062-.625.035157-.074218.058594-.152344.085938-.230468.054687-.140626.105469-.28125.148437-.425782.035156-.109375.066406-.222656.09375-.335937.03125-.109375.058594-.214844.082032-.324219.027343-.128906.054687-.253906.074218-.382812.015625-.085938.027344-.175782.039063-.265626.074219-.519531.09375-1.046874.0625-1.570312 0-.03125 0-.066406-.003907-.097656-.011718-.179688-.03125-.355469-.054687-.535156-.003906-.035157-.007813-.066407-.011719-.101563-.121094-.792969-.355468-1.570313-.710937-2.304687v-.003907c-.382813-.796875-.898438-1.546875-1.558594-2.207031l-10-10 10-10c.179687-.179688.347656-.367188.507813-.558594.050781-.0625.097656-.125.144531-.1875.105469-.132812.207031-.269531.304687-.410156.046875-.074219.097656-.148438.148438-.222656.085937-.136719.167968-.277344.25-.421875.039062-.070313.082031-.140625.117187-.214844.105469-.203125.203125-.410156.289063-.621094.035156-.078125.058594-.160156.089844-.234375.050781-.140625.101562-.28125.144531-.421875.035156-.113281.0625-.222656.09375-.339843.027343-.105469.054687-.214844.078125-.324219.03125-.125.054687-.253907.078125-.378907.011719-.089843.027343-.175781.039062-.265624.070313-.523438.09375-1.050782.058594-1.574219 0-.035157 0-.0625-.003906-.09375-.011719-.179688-.03125-.359375-.054688-.539063-.003906-.03125-.007812-.0625-.011719-.097656-.246093-1.652344-.996093-3.242188-2.269531-4.515625-3.152343-3.152344-8.269531-3.152344-11.425781 0l-10 10-10-10c-3.152344-3.152344-8.265625-3.152344-11.421875 0-.660156.660156-1.175781 1.410156-1.558594 2.207031-.355469.734375-.589843 1.515625-.710937 2.304688-.003906.035156-.007813.070312-.011719.101562-.023437.179688-.046875.359375-.058594.539063 0 .03125 0 .0625-.003906.09375-.027344.523437-.007813 1.046875.0625 1.570312.011719.089844.023437.179688.039063.265625.023437.128906.046874.253906.074218.378906.023438.109376.050782.21875.082032.328126.03125.113281.058593.226562.09375.335937.042968.140625.09375.28125.148437.421875.027344.078125.054687.15625.085937.234375.085938.210937.183594.417969.289063.625.039063.074219.082031.144531.121094.214844.078125.144531.160156.285156.25.421875.046875.074218.09375.148437.144531.222656.097656.140625.199219.277344.300781.414062.050781.0625.097657.125.148438.183594.160156.195313.324219.382813.503906.5625l10 10-10 10c-.660156.660156-1.171875 1.410156-1.554687 2.207032-.355469.734374-.59375 1.511718-.710938 2.304687-.003906.035156-.007812.070313-.011719.101563-.023437.179687-.046875.359374-.058593.539062 0 .03125 0 .0625-.003907.09375-.027343.527344-.007812 1.054688.0625 1.574219.011719.085937.023438.175781.039063.261719.023437.128906.046875.253906.074218.382812.027344.109375.050782.214844.082032.324219.03125.113281.058594.226562.09375.339843.042968.140626.09375.28125.148437.421876.027344.078124.054688.15625.085938.234374.085937.210938.183593.417969.289062.625.039063.070313.082031.144532.121094.214844.078125.144532.160156.285156.25.425782.046875.074218.09375.144531.144531.21875.097656.140624.199219.277343.300782.414062.050781.0625.097656.125.148437.183594.160156.195312.324219.382812.503906.5625 3.15625 3.152344 8.269531 3.152344 11.425781 0zm0 0"/><path d="m221.546875 216.957031c13.605469 0 24.675781-11.070312 24.675781-24.675781s-11.070312-24.675781-24.675781-24.675781-24.675781 11.070312-24.675781 24.675781 11.070312 24.675781 24.675781 24.675781zm0-35.894531c6.183594 0 11.21875 5.03125 11.21875 11.214844s-5.035156 11.214844-11.21875 11.214844-11.214844-5.03125-11.214844-11.214844 5.03125-11.214844 11.214844-11.214844zm0 0"/></g><path d="m157.648438 293.453125c-4.785157-1.28125-7.621094-6.203125-6.339844-10.988281 1.285156-4.78125 6.203125-7.621094 10.988281-6.335938 48.71875 13.066406 98.984375-15.941406 112.050781-64.660156 1.28125-4.78125 6.203125-7.621094 10.988282-6.339844 4.78125 1.285156 7.621093 6.203125 6.339843 10.988282-7.578125 28.246093-25.683593 51.84375-50.984375 66.445312-25.304687 14.597656-54.796875 18.464844-83.042968 10.890625zm0 0" fill="#fddd3a"/><path d="m287.316406 205.9375c-.015625.699219-.105468 1.414062-.296875 2.121094-7.574219 28.25-25.679687 51.847656-50.980469 66.449218-25.300781 14.597657-54.792968 18.464844-83.042968 10.886719-.707032-.1875-1.367188-.464843-1.984375-.804687-.089844 4.039062 2.558593 7.769531 6.632812 8.863281 28.25 7.574219 57.742188 3.707031 83.042969-10.890625 25.296875-14.601562 43.40625-38.195312 50.980469-66.445312 1.09375-4.078126-.808594-8.242188-4.351563-10.179688zm0 0" fill="#f6ca14"/><path d="m304.597656 236.320312-51.554687-13.828124c-3.765625-1.007813-4.785157-5.867188-1.746094-8.304688l35.203125-28.234375c2.507812-2.011719 6.246094-1.007813 7.410156 1.988281l16.351563 42.058594c1.414062 3.632812-1.902344 7.328125-5.664063 6.320312zm0 0" fill="#fddd3a"/><path d="m309.878906 229.015625c-.992187.519531-2.179687.707031-3.425781.375l-51.550781-13.828125c-1.246094-.332031-2.179688-1.089844-2.777344-2.039062l-.824219.664062c-3.039062 2.4375-2.019531 7.296875 1.742188 8.304688l51.554687 13.828124c3.765625 1.007813 7.082032-2.6875 5.667969-6.320312zm0 0" fill="#f6ca14"/><path d="m325.417969 274.820312 10-10c3.152343-3.15625 3.152343-8.269531 0-11.425781-3.152344-3.152343-8.269531-3.152343-11.425781 0l-10 10-10-10c-3.152344-3.152343-8.265626-3.152343-11.421876 0-3.15625 3.15625-3.15625 8.269531 0 11.425781l10 10-10 10c-3.15625 3.152344-3.15625 8.269532 0 11.421876 3.152344 3.15625 8.269532 3.15625 11.421876 0l10-10 10 10c3.15625 3.15625 8.273437 3.15625 11.425781 0 3.152343-3.152344 3.152343-8.269532 0-11.421876zm0 0" fill="#ee5a9c"/><path d="m335.414062 257.808594-13.503906 13.503906 3.503906 3.507812 10-10c2.496094-2.496093 3.011719-6.210937 1.558594-9.21875-.378906.796876-.894531 1.546876-1.558594 2.207032zm0 0" fill="#e43c90"/><path d="m302.570312 274.820312 3.503907-3.507812-13.503907-13.503906c-.660156-.660156-1.175781-1.410156-1.558593-2.207032-1.449219 3.007813-.9375 6.722657 1.558593 9.21875zm0 0" fill="#e43c90"/><path d="m335.414062 289.230469c-3.152343 3.15625-8.265624 3.15625-11.421874 0l-10-10-10 10c-3.152344 3.15625-8.269532 3.15625-11.425782 0-.660156-.660157-1.171875-1.410157-1.554687-2.203125-1.453125 3.007812-.9375 6.722656 1.554687 9.214844 3.15625 3.15625 8.269532 3.15625 11.425782 0l10-10 10 10c3.152343 3.15625 8.269531 3.15625 11.421874 0 2.496094-2.492188 3.011719-6.207032 1.558594-9.214844-.378906.792968-.894531 1.542968-1.558594 2.203125zm0 0" fill="#e43c90"/><path d="m177.726562 232.875 10-10c3.15625-3.15625 3.15625-8.269531 0-11.425781-3.152343-3.152344-8.269531-3.152344-11.421874 0l-10 10-10-10c-3.15625-3.152344-8.269532-3.152344-11.425782 0-3.152344 3.15625-3.152344 8.269531 0 11.425781l10 10-10 10c-3.152344 3.152344-3.152344 8.269531 0 11.421875 3.15625 3.15625 8.269532 3.15625 11.425782 0l10-10 10 10c3.152343 3.15625 8.265624 3.15625 11.421874 0 3.15625-3.152344 3.15625-8.269531 0-11.421875zm0 0" fill="#ee5a9c"/><path d="m187.726562 215.863281-13.503906 13.507813 3.503906 3.503906 10-10c2.496094-2.492188 3.007813-6.210938 1.558594-9.21875-.382812.796875-.894531 1.546875-1.558594 2.207031zm0 0" fill="#e43c90"/><path d="m154.882812 232.875 3.503907-3.507812-13.503907-13.503907c-.660156-.660156-1.175781-1.410156-1.558593-2.207031-1.449219 3.007812-.9375 6.722656 1.558593 9.21875zm0 0" fill="#e43c90"/><path d="m187.726562 247.289062c-3.152343 3.152344-8.269531 3.152344-11.421874 0l-10-10-10 10c-3.15625 3.152344-8.269532 3.152344-11.425782 0-.660156-.660156-1.171875-1.410156-1.558594-2.207031-1.449218 3.007813-.933593 6.722657 1.558594 9.21875 3.15625 3.152344 8.269532 3.152344 11.425782 0l10-10 10 10c3.152343 3.152344 8.265624 3.152344 11.421874 0 2.496094-2.496093 3.007813-6.210937 1.558594-9.21875-.382812.796875-.894531 1.542969-1.558594 2.207031zm0 0" fill="#e43c90"/><path d="m221.546875 210.699219c-13.605469 0-24.675781-11.070313-24.675781-24.675781 0-13.609376 11.070312-24.675782 24.675781-24.675782s24.675781 11.066406 24.675781 24.675782c.003906 13.605468-11.066406 24.675781-24.675781 24.675781zm0-35.894531c-6.183594 0-11.214844 5.03125-11.214844 11.214843 0 6.183594 5.03125 11.214844 11.214844 11.214844s11.21875-5.03125 11.21875-11.214844c0-6.183593-5.03125-11.214843-11.21875-11.214843zm0 0" fill="#1cade3"/><path d="m239.496094 186.019531c0-9.910156-8.035156-17.945312-17.945313-17.945312-9.914062 0-17.945312 8.035156-17.945312 17.945312 0 9.914063 8.035156 17.945313 17.945312 17.945313 9.910157.003906 17.945313-8.03125 17.945313-17.945313zm-17.949219 11.21875c-6.183594 0-11.214844-5.03125-11.214844-11.214843 0-6.183594 5.03125-11.21875 11.214844-11.21875s11.21875 5.035156 11.21875 11.21875c0 6.183593-5.03125 11.214843-11.21875 11.214843zm0 0" fill="#0099dc"/></svg>