<svg height="477.60001pt" viewBox="0 0 477.60001 477.60001" width="477.60001pt" xmlns="http://www.w3.org/2000/svg"><path d="m477.601562 238.800781c0 131.886719-106.914062 238.800781-238.800781 238.800781s-238.800781-106.914062-238.800781-238.800781 106.914062-238.800781 238.800781-238.800781 238.800781 106.914062 238.800781 238.800781zm0 0" fill="#382b73"/><path d="m445.398438 238.800781c0 114.101563-92.496094 206.597657-206.597657 206.597657-114.101562 0-206.597656-92.496094-206.597656-206.597657 0-114.101562 92.496094-206.597656 206.597656-206.597656 114.101563 0 206.597657 92.496094 206.597657 206.597656zm0 0" fill="#473080"/><path d="m402.773438 290.730469c0-32.179688-26.089844-58.269531-58.273438-58.269531v-93.894532c0-2.75-.808594-5.238281-2.117188-7.039062-.492187-.675782-1.054687-1.253906-1.667968-1.714844-.410156-.304688-.84375-.558594-1.292969-.753906-.683594-.289063-1.402344-.445313-2.152344-.445313h-27.660156v-17.0625c0-4.503906-3.652344-8.15625-8.15625-8.15625s-8.152344 3.652344-8.152344 8.15625v17.0625h-114.578125v-17.0625c0-4.503906-3.652344-8.15625-8.15625-8.15625s-8.152344 3.652344-8.152344 8.15625v17.0625h-27.660156c-.75 0-1.472656.15625-2.152344.445313-.226562.097656-.449218.210937-.664062.335937-1.511719.882813-2.761719 2.453125-3.542969 4.425781-.554687 1.410157-.875 3.027344-.875 4.742188v238.882812c0 5.5 4.457031 9.953126 9.953125 9.953126h197.078125c5.496094 0 9.953125-4.453126 9.953125-9.953126v-21.808593c32.183594 0 58.273438-26.089844 58.273438-58.269531 0-1.113282-.035156-2.222657-.097656-3.320313.058593-1.09375.09375-2.199219.09375-3.316406zm0 0" fill="#382b73"/><path d="m334.546875 375.398438h-197.074219c-5.496094 0-9.953125-4.453126-9.953125-9.953126v-225.605468c0-5.5 4.453125-9.957032 9.953125-9.957032h197.074219c5.5 0 9.957031 4.457032 9.957031 9.957032v225.605468c-.003906 5.5-4.460937 9.953126-9.957031 9.953126zm0 0" fill="#bbbdbf"/><path d="m334.546875 129.886719h-197.074219c-5.5 0-9.953125 4.457031-9.953125 9.953125v218.972656c0 5.496094 4.453125 9.957031 9.953125 9.957031h197.074219c5.5 0 9.957031-4.457031 9.957031-9.957031v-218.972656c-.003906-5.496094-4.460937-9.953125-9.957031-9.953125zm0 0" fill="#d0d2d3"/><path d="m344.5 126.566406v225.609375c0 1.707031-.433594 3.3125-1.1875 4.71875-1.679688 3.117188-4.976562 5.234375-8.765625 5.234375h-197.074219c-5.496094 0-9.953125-4.457031-9.953125-9.953125v-225.609375c0-5.492187 4.457031-9.953125 9.953125-9.953125h197.074219c5.496094 0 9.953125 4.460938 9.953125 9.953125zm0 0" fill="#fff"/><path d="m337.269531 116.613281h-202.515625c-3.996094 0-7.234375 4.457031-7.234375 9.953125v48.441406h216.980469v-48.441406c0-5.496094-3.238281-9.953125-7.230469-9.953125zm0 0" fill="#fddd3a"/><path d="m337.269531 116.613281h-202.515625c-3.996094 0-7.234375 4.457031-7.234375 9.953125v3.320313c0-5.5 3.238281-9.953125 7.234375-9.953125h202.515625c3.992188 0 7.230469 4.453125 7.230469 9.953125v-3.320313c0-5.496094-3.238281-9.953125-7.230469-9.953125zm0 0" fill="#fff235"/><path d="m157.25 221.457031h26.636719c4.328125 0 7.835937 3.507813 7.835937 7.832031v33.6875c0 4.328126-3.507812 7.835938-7.835937 7.835938h-26.636719c-4.324219 0-7.835938-3.507812-7.835938-7.835938v-33.6875c0-4.324218 3.511719-7.832031 7.835938-7.832031zm65.441406 49.355469h26.636719c4.324219 0 7.832031-3.507812 7.832031-7.835938v-33.6875c0-4.324218-3.507812-7.832031-7.832031-7.832031h-26.636719c-4.324218 0-7.832031 3.507813-7.832031 7.832031v33.6875c-.003906 4.328126 3.503906 7.835938 7.832031 7.835938zm65.441406 0h26.636719c4.328125 0 7.835938-3.507812 7.835938-7.835938v-33.6875c0-4.324218-3.507813-7.832031-7.835938-7.832031h-26.636719c-4.328124 0-7.835937 3.507813-7.835937 7.832031v33.6875c0 4.328126 3.507813 7.835938 7.835937 7.835938zm-130.882812 72.859375h26.636719c4.328125 0 7.835937-3.507813 7.835937-7.832031v-33.691406c0-4.324219-3.507812-7.832032-7.835937-7.832032h-26.636719c-4.324219 0-7.835938 3.507813-7.835938 7.832032v33.691406c0 4.324218 3.511719 7.832031 7.835938 7.832031zm65.441406 0h26.636719c4.324219 0 7.832031-3.507813 7.832031-7.832031v-33.691406c0-4.324219-3.507812-7.832032-7.832031-7.832032h-26.636719c-4.324218 0-7.832031 3.507813-7.832031 7.832032v33.691406c-.003906 4.324218 3.503906 7.832031 7.832031 7.832031zm65.441406 0h26.636719c4.328125 0 7.835938-3.507813 7.835938-7.832031v-33.691406c0-4.324219-3.507813-7.832032-7.835938-7.832032h-26.636719c-4.328124 0-7.835937 3.507813-7.835937 7.832032v33.691406c0 4.324218 3.507813 7.832031 7.835937 7.832031zm0 0" fill="#e6e7e8"/><path d="m322.605469 237.988281v24.988281c0 4.328126-3.507813 7.835938-7.835938 7.835938h-24.566406c-2.566406 6.566406-3.976563 13.714844-3.976563 21.191406 0 .851563.027344 1.695313.066407 2.539063.589843-.144531 1.203125-.226563 1.839843-.226563h26.636719c4.328125 0 7.835938 3.507813 7.835938 7.832032v33.691406c0 4.324218-3.507813 7.832031-7.835938 7.832031h-7.226562c9.773437 8.03125 22.199219 12.949219 35.769531 13.222656.757812-1.40625 1.191406-3.011719 1.191406-4.71875v-118.445312c-7.75 0-15.140625 1.515625-21.898437 4.257812zm0 0" fill="#d0d2d3"/><path d="m322.605469 335.839844v-33.691406c0-4.324219-3.507813-7.832032-7.835938-7.832032h-26.636719c-.636718 0-1.25.082032-1.839843.226563.011719.257812.019531.519531.035156.777343-.066406 1.09375-.101563 2.207032-.101563 3.320313 0 18.148437 8.308594 34.34375 21.316407 45.03125h7.226562c4.328125 0 7.835938-3.507813 7.835938-7.832031zm0 0" fill="#bbbdbf"/><path d="m290.203125 270.8125h24.566406c4.328125 0 7.835938-3.507812 7.835938-7.835938v-24.988281c-14.808594 6.007813-26.582031 17.925781-32.402344 32.824219zm0 0" fill="#bbbdbf"/><path d="m157.25 214.820312h26.636719c4.328125 0 7.835937 3.507813 7.835937 7.832032v33.691406c0 4.324219-3.507812 7.832031-7.835937 7.832031h-26.636719c-4.324219 0-7.835938-3.507812-7.835938-7.832031v-33.691406c0-4.324219 3.511719-7.832032 7.835938-7.832032zm65.441406 49.359376h26.636719c4.324219 0 7.832031-3.507813 7.832031-7.835938v-33.6875c0-4.328125-3.507812-7.835938-7.832031-7.835938h-26.636719c-4.324218 0-7.832031 3.507813-7.832031 7.835938v33.6875c-.003906 4.328125 3.503906 7.835938 7.832031 7.835938zm65.441406 0h26.636719c4.328125 0 7.835938-3.507813 7.835938-7.835938v-33.6875c0-4.328125-3.507813-7.835938-7.835938-7.835938h-26.636719c-4.328124 0-7.835937 3.507813-7.835937 7.835938v33.6875c0 4.328125 3.507813 7.835938 7.835937 7.835938zm-130.882812 72.859374h26.636719c4.328125 0 7.835937-3.507812 7.835937-7.835937v-33.6875c0-4.324219-3.507812-7.832031-7.835937-7.832031h-26.636719c-4.324219 0-7.835938 3.507812-7.835938 7.832031v33.6875c0 4.328125 3.511719 7.835937 7.835938 7.835937zm65.441406 0h26.636719c4.324219 0 7.832031-3.507812 7.832031-7.835937v-33.6875c0-4.324219-3.507812-7.832031-7.832031-7.832031h-26.636719c-4.324218 0-7.832031 3.507812-7.832031 7.832031v33.6875c-.003906 4.328125 3.503906 7.835937 7.832031 7.835937zm65.441406 0h26.636719c4.328125 0 7.835938-3.507812 7.835938-7.835937v-33.6875c0-4.324219-3.507813-7.832031-7.835938-7.832031h-26.636719c-4.328124 0-7.835937 3.507812-7.835937 7.832031v33.6875c0 4.328125 3.507813 7.835937 7.835937 7.835937zm0 0" fill="#fddd3a"/><path d="m249.328125 287.679688h-26.636719c-4.324218 0-7.832031 3.507812-7.832031 7.835937v3.316406c0-4.324219 3.507813-7.835937 7.832031-7.835937h26.636719c4.324219 0 7.832031 3.511718 7.832031 7.835937v-3.316406c0-4.328125-3.507812-7.835937-7.832031-7.835937zm0 0" fill="#fff235"/><path d="m183.886719 287.679688h-26.636719c-4.324219 0-7.835938 3.507812-7.835938 7.835937v3.316406c0-4.324219 3.511719-7.835937 7.835938-7.835937h26.636719c4.328125 0 7.835937 3.511718 7.835937 7.835937v-3.316406c0-4.328125-3.507812-7.835937-7.835937-7.835937zm0 0" fill="#fff235"/><path d="m183.886719 214.820312h-26.636719c-4.324219 0-7.835938 3.507813-7.835938 7.832032v3.320312c0-4.328125 3.511719-7.835937 7.835938-7.835937h26.636719c4.328125 0 7.835937 3.507812 7.835937 7.835937v-3.320312c0-4.324219-3.507812-7.832032-7.835937-7.832032zm0 0" fill="#fff235"/><path d="m249.328125 214.820312h-26.636719c-4.324218 0-7.832031 3.507813-7.832031 7.832032v3.320312c0-4.328125 3.507813-7.835937 7.832031-7.835937h26.636719c4.324219 0 7.832031 3.507812 7.832031 7.835937v-3.320312c0-4.324219-3.507812-7.832032-7.832031-7.832032zm0 0" fill="#fff235"/><path d="m314.769531 287.679688h-26.640625c-4.324218 0-7.832031 3.507812-7.832031 7.835937v3.316406c0-4.324219 3.507813-7.835937 7.832031-7.835937h26.640625c4.324219 0 7.832031 3.511718 7.832031 7.835937v-3.316406c.003907-4.328125-3.503906-7.835937-7.832031-7.835937zm0 0" fill="#fff235"/><path d="m314.769531 214.820312h-26.640625c-4.324218 0-7.832031 3.507813-7.832031 7.832032v3.320312c0-4.328125 3.507813-7.835937 7.832031-7.835937h26.640625c4.324219 0 7.832031 3.507812 7.832031 7.835937v-3.320312c.003907-4.324219-3.503906-7.832032-7.832031-7.832032zm0 0" fill="#fff235"/><g fill="#f6ca14"><path d="m183.886719 250.90625h-26.636719c-4.324219 0-7.835938-3.507812-7.835938-7.835938v13.273438c0 4.324219 3.511719 7.832031 7.835938 7.832031h26.636719c4.328125 0 7.835937-3.507812 7.835937-7.832031v-13.273438c0 4.328126-3.507812 7.835938-7.835937 7.835938zm0 0"/><path d="m249.328125 323.765625h-26.636719c-4.324218 0-7.832031-3.507813-7.832031-7.832031v13.269531c0 4.328125 3.507813 7.835937 7.832031 7.835937h26.636719c4.324219 0 7.832031-3.507812 7.832031-7.835937v-13.269531c0 4.324218-3.507812 7.832031-7.832031 7.832031zm0 0"/><path d="m183.886719 323.765625h-26.636719c-4.324219 0-7.835938-3.507813-7.835938-7.832031v13.269531c0 4.328125 3.511719 7.835937 7.835938 7.835937h26.636719c4.328125 0 7.835937-3.507812 7.835937-7.835937v-13.269531c0 4.324218-3.507812 7.832031-7.835937 7.832031zm0 0"/><path d="m249.328125 250.90625h-26.636719c-4.324218 0-7.832031-3.507812-7.832031-7.835938v13.273438c0 4.324219 3.507813 7.832031 7.832031 7.832031h26.636719c4.324219 0 7.832031-3.507812 7.832031-7.832031v-13.273438c0 4.328126-3.507812 7.835938-7.832031 7.835938zm0 0"/><path d="m314.769531 250.90625h-26.640625c-4.324218 0-7.832031-3.507812-7.832031-7.835938v13.273438c0 4.324219 3.507813 7.832031 7.832031 7.832031h26.640625c4.324219 0 7.832031-3.507812 7.832031-7.832031v-13.273438c.003907 4.328126-3.503906 7.835938-7.832031 7.835938zm0 0"/><path d="m314.769531 323.765625h-26.640625c-4.324218 0-7.832031-3.507813-7.832031-7.832031v13.269531c0 4.328125 3.507813 7.835937 7.832031 7.835937h26.640625c4.324219 0 7.832031-3.507812 7.832031-7.835937v-13.269531c.003907 4.324218-3.503906 7.832031-7.832031 7.832031zm0 0"/><path d="m314.769531 287.679688h-26.640625c-.605468 0-1.191406.078124-1.757812.207031-.09375 1.359375-.144532 2.734375-.144532 4.121093 0 1.113282.035157 2.214844.097657 3.316407-.0625 1.09375-.097657 2.203125-.097657 3.316406 0 9 2.050782 17.519531 5.699219 25.128906h22.84375c4.324219 0 7.832031-3.507812 7.832031-7.835937v-20.414063c.003907-4.332031-3.503906-7.839843-7.832031-7.839843zm0 0"/></g><path d="m314.769531 323.765625h-22.84375c2.3125 4.828125 5.265625 9.289063 8.757813 13.273437h14.085937c4.324219 0 7.832031-3.507812 7.832031-7.835937v-13.269531c.003907 4.324218-3.503906 7.832031-7.832031 7.832031zm0 0" fill="#e7ad27"/><path d="m293.289062 264.179688h21.480469c4.328125 0 7.835938-3.507813 7.835938-7.835938v-18.351562c-12.535157 5.085937-22.898438 14.402343-29.316407 26.1875zm0 0" fill="#e7ad27"/><path d="m127.519531 175.007812h216.980469v11.945313h-216.980469zm0 0" fill="#f6ca14"/><path d="m357.894531 228.691406c-31.320312-7.398437-62.707031 11.996094-70.101562 43.316406-7.394531 31.320313 12 62.707032 43.320312 70.101563 31.320313 7.398437 62.703125-12 70.101563-43.320313 7.394531-31.316406-12-62.703124-43.320313-70.097656zm0 0" fill="#106ea0"/><path d="m402.773438 278.730469c0 32.183593-26.089844 58.273437-58.273438 58.273437s-58.273438-26.089844-58.273438-58.273437c0-32.179688 26.089844-58.269531 58.273438-58.269531s58.273438 26.089843 58.273438 58.269531zm0 0" fill="#1cade3"/><path d="m390.136719 278.730469c0 25.207031-20.429688 45.640625-45.636719 45.640625s-45.636719-20.433594-45.636719-45.640625c0-25.203125 20.429688-45.636719 45.636719-45.636719s45.636719 20.433594 45.636719 45.636719zm0 0" fill="#0099dc"/><path d="m344.5 236.410156c24.648438 0 44.722656 19.546875 45.597656 43.980469.019532-.550781.039063-1.101563.039063-1.65625 0-25.207031-20.433594-45.640625-45.636719-45.640625-25.207031 0-45.636719 20.433594-45.636719 45.640625 0 .554687.019531 1.109375.039063 1.65625.875-24.433594 20.949218-43.980469 45.597656-43.980469zm0 0" fill="#106ea0"/><path d="m362.035156 289.863281-11.300781-11.300781c-.042969-1.546875-.644531-2.949219-1.613281-4.019531.011718-.148438.023437-.304688.023437-.457031v-24.761719c0-2.566407-2.082031-4.644531-4.644531-4.644531-2.566406 0-4.644531 2.082031-4.644531 4.644531v24.761719c0 .152343.007812.308593.023437.457031-1.003906 1.109375-1.621094 2.574219-1.621094 4.1875 0 3.390625 2.707032 6.144531 6.074219 6.234375l11.300781 11.300781c1.765626 1.765625 4.636719 1.765625 6.402344 0 1.769532-1.769531 1.769532-4.632813 0-6.402344zm0 0" fill="#106ea0"/><path d="m350.742188 275.414062c0 3.449219-2.792969 6.242188-6.242188 6.242188s-6.242188-2.792969-6.242188-6.242188c0-3.449218 2.792969-6.242187 6.242188-6.242187s6.242188 2.792969 6.242188 6.242187zm0 0" fill="#fff"/><path d="m344.5 275.414062c-2.566406 0-4.644531-2.078124-4.644531-4.644531v-24.761719c0-2.566406 2.082031-4.644531 4.644531-4.644531 2.566406 0 4.644531 2.078125 4.644531 4.644531v24.761719c0 2.566407-2.078125 4.644531-4.644531 4.644531zm0 0" fill="#fff"/><path d="m343.375 274.289062c1.769531-1.765624 4.636719-1.765624 6.40625 0l12.253906 12.257813c1.769532 1.765625 1.769532 4.636719 0 6.402344-1.765625 1.769531-4.636718 1.769531-6.402344 0l-12.257812-12.253907c-1.769531-1.769531-1.769531-4.636718 0-6.40625zm0 0" fill="#fff"/><path d="m347.984375 275.414062c0 1.925782-1.558594 3.484376-3.484375 3.484376s-3.484375-1.558594-3.484375-3.484376c0-1.925781 1.558594-3.484374 3.484375-3.484374s3.484375 1.558593 3.484375 3.484374zm0 0" fill="#fddd3a"/><path d="m127.519531 163.394531h216.980469v3.984375h-216.980469zm0 0" fill="#fff235"/><path d="m182.703125 134.972656c0 6.703125-5.433594 12.136719-12.136719 12.136719-6.699218 0-12.132812-5.433594-12.132812-12.136719s5.433594-12.136718 12.132812-12.136718c6.703125 0 12.136719 5.433593 12.136719 12.136718zm0 0" fill="#f6ca14"/><path d="m313.585938 134.972656c0 6.703125-5.433594 12.136719-12.136719 12.136719s-12.136719-5.433594-12.136719-12.136719 5.433594-12.136718 12.136719-12.136718 12.136719 5.433593 12.136719 12.136718zm0 0" fill="#f6ca14"/><path d="m170.566406 141.828125c-4.503906 0-8.152344-3.648437-8.152344-8.152344v-34.121093c0-4.503907 3.648438-8.15625 8.152344-8.15625s8.15625 3.652343 8.15625 8.15625v34.121093c0 4.503907-3.652344 8.152344-8.15625 8.152344zm0 0" fill="#fff"/><path d="m170.566406 128.558594c-4.503906 0-8.152344-3.652344-8.152344-8.15625v13.273437c0 4.503907 3.648438 8.152344 8.152344 8.152344s8.15625-3.648437 8.15625-8.152344v-13.273437c0 4.503906-3.652344 8.15625-8.15625 8.15625zm0 0" fill="#e6e7e8"/><path d="m301.449219 141.828125c-4.503907 0-8.152344-3.648437-8.152344-8.152344v-34.121093c0-4.503907 3.648437-8.15625 8.152344-8.15625 4.503906 0 8.15625 3.652343 8.15625 8.15625v34.121093c0 4.503907-3.652344 8.152344-8.15625 8.152344zm0 0" fill="#fff"/><path d="m301.449219 128.558594c-4.503907 0-8.152344-3.652344-8.152344-8.15625v13.273437c0 4.503907 3.648437 8.152344 8.152344 8.152344 4.503906 0 8.15625-3.648437 8.15625-8.152344v-13.273437c0 4.503906-3.652344 8.15625-8.15625 8.15625zm0 0" fill="#e6e7e8"/><path d="m127.519531 186.953125h216.980469v6.636719h-216.980469zm0 0" fill="#e6e7e8"/></svg>