<svg height="477.60001pt" viewBox="0 0 477.60001 477.60001" width="477.60001pt" xmlns="http://www.w3.org/2000/svg"><path d="m477.601562 238.800781c0 131.886719-106.914062 238.800781-238.800781 238.800781s-238.800781-106.914062-238.800781-238.800781 106.914062-238.800781 238.800781-238.800781 238.800781 106.914062 238.800781 238.800781zm0 0" fill="#382b73"/><path d="m445.398438 238.800781c0 114.101563-92.496094 206.597657-206.597657 206.597657-114.101562 0-206.597656-92.496094-206.597656-206.597657 0-114.101562 92.496094-206.597656 206.597656-206.597656 114.101563 0 206.597657 92.496094 206.597657 206.597656zm0 0" fill="#473080"/><g fill="#382b73"><path d="m338.664062 264.347656c.199219-.019531.398438-.039062.597657-.0625.21875-.023437.433593-.050781.648437-.082031.234375-.03125.46875-.0625.699219-.097656.097656-.015625.195313-.039063.292969-.054688 1.011718-.171875 2.007812-.398437 2.984375-.675781.039062-.011719.078125-.023438.117187-.03125 11.582032-3.347656 20.152344-13.78125 20.699219-26.304688.019531-.421874.03125-.847656.03125-1.273437 0-.449219-.011719-.890625-.03125-1.332031-.007813-.132813-.015625-.265625-.023437-.398438-.019532-.320312-.046876-.640625-.074219-.957031-.011719-.136719-.023438-.269531-.039063-.40625-.039062-.398437-.089844-.796875-.152344-1.191406-.003906-.035157-.007812-.070313-.011718-.105469-.0625-.417969-.140625-.835938-.222656-1.25-.03125-.136719-.058594-.273438-.089844-.414062-.0625-.289063-.128906-.578126-.199219-.863282-.035156-.144531-.070313-.285156-.105469-.425781-.09375-.351563-.191406-.695313-.296875-1.039063-.019531-.0625-.035156-.121093-.054687-.183593-2.859375-9.164063-10.191406-16.347657-19.433594-19.015625-.039062-.011719-.078125-.023438-.117188-.035156-.972656-.273438-1.964843-.503907-2.976562-.675782-.101562-.015625-.199219-.035156-.300781-.050781-.230469-.039063-.460938-.070313-.695313-.101563-.214844-.027343-.429687-.054687-.648437-.082031-.199219-.019531-.398438-.039062-.597657-.058593-.273437-.027344-.546874-.046876-.824218-.0625-.160156-.007813-.316406-.019532-.476563-.027344-.441406-.023438-.890625-.035156-1.335937-.035156h-.007813v-72.796876c0-2.617187-1.046875-4.828124-2.660156-6.40625-.585937-.574218-1.246094-1.0625-1.960937-1.457031-.355469-.199219-.722657-.371093-1.101563-.519531-.382813-.152344-.769531-.273438-1.164063-.371094-.792968-.195312-1.613281-.285156-2.441406-.257812-.207031.007812-.414062.019531-.621094.042968-1.65625.167969-3.308593.816407-4.777343 2.027344-8.941407 7.378906-18.320313 14.113282-28.066407 20.191406v.003907c-.152343.09375-.304687.183593-.453124.277343-1.050782.652344-2.101563 1.296876-3.160157 1.929688-.695312.417969-1.394531.828125-2.089843 1.242188-.703126.410156-1.402344.820312-2.109376 1.226562-.722656.417969-1.449218.835938-2.175781 1.246094-.816406.460937-1.636719.914062-2.460937 1.363281-1.160156.640625-2.328125 1.269531-3.5 1.890625-.390625.207031-.785156.414062-1.179688.621094-.21875.113281-.4375.230468-.65625.34375-.835937.4375-1.679687.871094-2.523437 1.296875-.386719.195312-.773438.386719-1.160157.582031-.136718.066406-.273437.132812-.40625.199219-1.6875.839843-3.382812 1.660156-5.082031 2.464843-.171875.078126-.339843.160157-.511719.242188-.179687.082031-.355468.167969-.53125.25-.984374.457031-1.972656.910156-2.964843 1.355469-.367188.164062-.738281.328125-1.109375.492187 0 0 0 .003906-.003906.003906-1.515626.671876-3.035157 1.328126-4.5625 1.976563-.230469.097656-.464844.195313-.699219.292969-1.539063.644531-3.085938 1.28125-4.636719 1.894531-.214844.085937-.429688.171875-.644531.253906-1.597657.632813-3.210938 1.242188-4.820313 1.839844-.367187.136719-.730468.269531-1.097656.402344-1.625.597656-3.253906 1.179687-4.894531 1.746093-.003907 0-.007813 0-.011719.003907-.003906 0-.011719.003906-.015625.003906-.632813.21875-1.273437.425781-1.90625.640625-.609375.203125-1.214844.410156-1.824219.609375-26.058594 8.515625-53.480468 12.960937-81.300781 12.960937h-50.90625c-4.96875 0-9 4.03125-9 9v8.800782h-12.007813c-3.105468 0-5.84375 1.574218-7.460937 3.96875-.324219.476562-.601563.988281-.828125 1.527344-.457031 1.074218-.710938 2.257812-.710938 3.503906v43.597656c0 1.242188.253907 2.425781.710938 3.503906.226562.539063.503906 1.050782.828125 1.53125 1.617187 2.390625 4.355469 3.964844 7.460937 3.964844h12.007813v8.800781c0 1.242188.25 2.425781.707031 3.503907.34375.808593.800782 1.554687 1.347656 2.222656 1.652344 2 4.148438 3.273437 6.945313 3.273437h1.105469v13.140625c0 3.382813 1.644531 6.558594 4.414062 8.507813l9.824219 6.921875 10.164063 58.457031c.25 1.4375 1 2.679687 2.046874 3.566406.132813.109375.269532.214844.410157.3125.980469.691407 2.175781 1.09375 3.453125 1.09375h27.417968c.699219 0 1.367188-.117187 1.984376-.332031.496093-.175781.957031-.417969 1.382812-.707031.8125-.550781 1.480469-1.289063 1.9375-2.152344.136719-.25.242188-.519531.339844-.789063.105468-.289062.1875-.589843.246094-.894531.050781-.261719.089843-.527343.101562-.796875.015625-.25.007812-.503906-.011719-.761718-.011719-.195313-.03125-.394532-.070312-.59375l-.4375-2.527344-13.085938-75.246094-1.253906-7.199219h.925781c24.691406 0 49.074219 3.492188 72.464844 10.230469 2.960938.855469 5.902344 1.773438 8.832031 2.730469 1.152344.375 2.296875.761719 3.441407 1.152343.097656.035157.199218.066407.296874.101563.003907 0 .007813 0 .011719.003906 0 0 .003907.003907.003907.003907 1.636718.558593 3.265624 1.144531 4.890624 1.738281.371094.136719.742188.273437 1.113282.410156 1.609375.601563 3.21875 1.210937 4.820312 1.839844.046875.019531.097656.039062.140625.054687.164063.066406.328125.132813.492188.195313 1.554687.617187 3.097656 1.25 4.640625 1.894531.234375.097656.472656.199219.703125.300781 1.527343.640625 3.046875 1.296875 4.5625 1.972657.003906 0 .003906 0 .007812.003906.328125.144531.65625.292968.984375.441406.042969.015625.078125.035156.117188.050781.992187.449219 1.984375.898438 2.972656 1.359375.339844.160156.679688.320313 1.019531.480469 1.707031.804687 3.40625 1.628906 5.097657 2.46875.003906.003906.003906.003906.007812.003906.226562.113281.457031.230469.683594.34375.292968.144531.585937.289063.875.433594.84375.429687 1.6875.863281 2.527344 1.300781.523437.269532 1.042968.546875 1.5625.820313.09375.046875.179687.09375.269531.144531h.003906c1.164063.617188 2.328125 1.246094 3.488281 1.882812 0 0 .003906 0 .007813.003907.757812.414062 1.515625.832031 2.269531 1.257812.066406.039063.128906.070313.191406.109375.128906.070313.257813.144532.386719.21875.597656.335938 1.195313.679688 1.792969 1.027344.492187.28125.980468.566406 1.46875.855469.214844.121093.425781.246093.636718.367187.699219.414063 1.398438.824219 2.09375 1.242188.195313.117187.386719.238281.578126.355468 1.011718.609376 2.019531 1.222657 3.019531 1.847657.003906.003906.011719.007812.015625.011719.164062.101562.332031.199218.496094.300781 9.566406 5.996093 18.78125 12.636719 27.570312 19.886719 1.652344 1.363281 3.539062 2.011718 5.398438 2.070312 1.445312.046875 2.875-.261719 4.167968-.871094.921875-.433594 1.769532-1.019531 2.503906-1.738281.734376-.71875 1.347657-1.5625 1.800782-2.523437.089844-.191407.175781-.386719.25-.585938.390625-1 .605468-2.105469.605468-3.292969v-72.792969h.007813c.449219 0 .894531-.015624 1.335937-.035156.160157-.007812.320313-.019531.476563-.03125.285156-.019531.5625-.039062.835937-.0625zm0 0"/><path d="m378.601562 296.027344c0-.007813 0-.019532-.003906-.03125-.015625-.191406-.039062-.378906-.070312-.566406-.210938-1.207032-.773438-2.359376-1.703125-3.289063l-9.363281-9.367187c-2.394532-2.394532-6.289063-2.394532-8.683594 0-.929688.929687-1.492188 2.082031-1.703125 3.285156v.003906c-.03125.1875-.054688.378906-.070313.566406v.03125c-.015625.183594-.023437.363282-.019531.542969 0 .023437 0 .042969.003906.070313.003907.167968.011719.335937.03125.503906.003907.035156.011719.074218.015625.109375.019532.152343.039063.308593.070313.460937.011719.046875.027343.101563.039062.148438.03125.140625.0625.277344.101563.410156.023437.066406.046875.128906.070312.195312.039063.121094.078125.242188.128906.359376.03125.078124.070313.152343.105469.230468.046875.101563.089844.203125.144531.304688.046876.089844.105469.175781.15625.265625.050782.085937.097657.167969.152344.25.066406.105469.144532.203125.222656.304687.046876.0625.085938.125.136719.1875.128907.15625.265625.308594.414063.457032l9.367187 9.367187c1.199219 1.199219 2.769531 1.796875 4.34375 1.796875 1.570313 0 3.144531-.597656 4.339844-1.796875.148437-.144531.289063-.300781.417969-.460937.046875-.058594.089844-.125.136718-.183594.074219-.101563.15625-.203125.222657-.304688.054687-.082031.101562-.167968.152343-.25.050782-.089844.105469-.175781.152344-.265625.054688-.097656.097656-.203125.144532-.304687.035156-.078125.074218-.152344.105468-.234375.050782-.113281.089844-.234375.128906-.355469.023438-.066406.050782-.128906.070313-.195312.039063-.136719.070313-.269532.101563-.40625.011718-.050782.027343-.101563.039062-.152344.03125-.152344.050781-.304688.070312-.457032.003907-.039062.015626-.074218.019532-.113281.015625-.167969.023437-.335937.027344-.503906 0-.023437.003906-.042969.003906-.070313 0-.183593-.007813-.363281-.019532-.542968zm0 0"/><path d="m403.746094 235.148438c-.011719-.097657-.027344-.191407-.042969-.289063-.011719-.097656-.023437-.203125-.046875-.300781-.023438-.125-.058594-.253906-.09375-.378906-.015625-.0625-.027344-.125-.046875-.1875-.042969-.144532-.097656-.289063-.152344-.433594-.015625-.035156-.023437-.070313-.039062-.105469-.0625-.160156-.136719-.3125-.214844-.464844-.007813-.015625-.015625-.03125-.023437-.046875-.082032-.164062-.179688-.320312-.277344-.476562 0-.003906-.003906-.003906-.003906-.007813-1.09375-1.703125-3-2.835937-5.167969-2.835937h-13.246094c-2.167969 0-4.074219 1.132812-5.167969 2.835937 0 .003907-.003906.007813-.003906.011719-.097656.152344-.191406.3125-.277344.476562-.007812.011719-.011718.027344-.019531.042969-.078125.152344-.152344.308594-.21875.46875-.011719.03125-.023437.070313-.039063.101563-.054687.144531-.109374.289062-.152343.4375-.019531.058594-.03125.125-.046875.1875-.035156.125-.070313.25-.09375.378906-.019532.097656-.03125.199219-.046875.300781-.015625.09375-.03125.191407-.042969.289063-.019531.203125-.03125.402344-.03125.613281 0 3.382813 2.753906 6.140625 6.140625 6.140625h13.25c3.386719 0 6.140625-2.753906 6.140625-6.140625-.003906-.210937-.015625-.414063-.035156-.617187zm0 0"/><path d="m357.632812 181.644531c-.082031.160157-.15625.324219-.222656.492188-.011718.023437-.019531.050781-.027344.074219-.058593.152343-.113281.308593-.160156.464843-.015625.050781-.023437.105469-.039062.15625-.035156.132813-.070313.265625-.09375.398438-.019532.09375-.03125.1875-.042969.28125-.015625.097656-.035156.195312-.042969.296875-.019531.199218-.027344.398437-.027344.597656 0 1.640625.636719 3.183594 1.796876 4.339844 1.199218 1.199218 2.769531 1.796875 4.34375 1.796875 1.570312 0 3.144531-.597657 4.339843-1.796875l9.367188-9.367188c.148437-.148437.285156-.300781.414062-.460937.050781-.058594.089844-.121094.136719-.183594.078125-.101563.15625-.203125.226562-.304687.050782-.082032.097657-.167969.144532-.25.054687-.089844.113281-.175782.160156-.269532.050781-.097656.097656-.199218.140625-.296875.039063-.078125.078125-.15625.109375-.238281.046875-.113281.085938-.234375.125-.351562.023438-.066407.050781-.132813.070312-.199219.039063-.132813.074219-.269531.105469-.402344.011719-.054687.027344-.105469.035157-.15625.03125-.152344.054687-.304687.074218-.457031.003906-.039063.011719-.078125.015625-.113282.019531-.167968.027344-.335937.03125-.503906 0-.023437.003907-.046875.003907-.070312 0-.179688-.003907-.355469-.019532-.535156 0-.015626 0-.027344 0-.039063-.019531-.1875-.042968-.375-.074218-.566406 0 0 0 0 0-.003907-.207032-1.203124-.769532-2.355468-1.699219-3.285156-1.160157-1.160156-2.703125-1.796875-4.34375-1.796875-1.636719 0-3.179688.636719-4.339844 1.796875l-9.367187 9.367188c-.050782.050781-.089844.097656-.136719.148437-.398438.429688-.734375.902344-.992188 1.410157-.003906.011718-.007812.019531-.011719.027343zm0 0"/></g><path d="m321.289062 332.203125c-46.886718-38.6875-105.777343-59.847656-166.5625-59.847656h-50.898437c-4.96875 0-9-4.03125-9-9v-79.195313c0-4.96875 4.03125-9 9-9h50.898437c60.789063 0 119.675782-21.160156 166.5625-59.847656 5.867188-4.84375 14.726563-.667969 14.726563 6.941406v203.007813c0 7.609375-8.859375 11.785156-14.726563 6.941406zm0 0" fill="#ee5a9c"/><path d="m321.289062 115.316406c-46.886718 38.6875-105.773437 59.847656-166.5625 59.847656h-50.898437c-4.96875 0-9 4.03125-9 9v13.199219c0-4.96875 4.03125-9 9-9h50.898437c60.789063 0 119.675782-21.160156 166.5625-59.847656 5.867188-4.84375 14.726563-.667969 14.726563 6.941406v-13.199219c0-7.609374-8.859375-11.785156-14.726563-6.941406zm0 0" fill="#ef6ea8"/><path d="m321.289062 302.203125c-46.886718-38.6875-105.777343-59.847656-166.5625-59.847656h-50.898437c-4.96875 0-9-4.03125-9-9v30c0 4.96875 4.03125 9 9 9h50.898437c60.789063 0 119.675782 21.160156 166.5625 59.847656 5.867188 4.84375 14.726563.667969 14.726563-6.941406v-30c0 7.609375-8.859375 11.785156-14.726563 6.941406zm0 0" fill="#e43c90"/><path d="m94.828125 254.558594h-12.007813c-4.96875 0-9-4.027344-9-9v-43.597656c0-4.972657 4.03125-9 9-9h12.007813zm0 0" fill="#fddd3a"/><path d="m73.820312 228.003906v17.554688c0 4.972656 4.03125 9 9 9h12.007813v-17.554688h-12.007813c-4.96875 0-9-4.03125-9-9zm0 0" fill="#f6ca14"/><path d="m336.015625 195.050781h.007813c15.855468 0 28.710937 12.851563 28.710937 28.710938 0 15.855469-12.855469 28.707031-28.710937 28.707031h-.007813zm0 0" fill="#fddd3a"/><path d="m336.023438 195.050781h-.007813v4.984375h.007813c15.015624 0 27.332031 11.527344 28.597656 26.21875.070312-.824218.113281-1.652344.113281-2.492187 0-15.859375-12.851563-28.710938-28.710937-28.710938zm0 0" fill="#fff235"/><path d="m336.023438 235.339844h-.007813v17.128906h.007813c15.855468 0 28.710937-12.851562 28.710937-28.707031 0-2.984375-.457031-5.863281-1.300781-8.566407-3.640625 11.671876-14.535156 20.144532-27.410156 20.144532zm0 0" fill="#f6ca14"/><path d="m115.523438 175.160156h15.898437v97.199219h-15.898437zm0 0" fill="#fddd3a"/><path d="m115.523438 175.160156h15.898437v13.203125h-15.898437zm0 0" fill="#fff235"/><path d="m115.523438 242.359375h15.898437v30h-15.898437zm0 0" fill="#f6ca14"/><path d="m236.023438 285.316406c20.019531 6.542969 39.234374 15.488282 57.199218 26.695313v-176.503907c-17.964844 11.203126-37.179687 20.148438-57.199218 26.691407zm0 0" fill="#fddd3a"/><path d="m293.222656 148.707031v-13.199219h-.003906c-1.195312.75-2.402344 1.484376-3.613281 2.210938-.695313.417969-1.394531.828125-2.089844 1.238281-.703125.414063-1.402344.824219-2.109375 1.230469-.722656.417969-1.449219.835938-2.175781 1.246094-.820313.457031-1.636719.910156-2.460938 1.363281-1.160156.636719-2.328125 1.265625-3.5 1.886719-.609375.324218-1.222656.648437-1.835937.964844-.835938.4375-1.679688.871093-2.523438 1.296874-.523437.265626-1.046875.523438-1.566406.78125-1.6875.839844-3.382812 1.660157-5.082031 2.464844-.347657.164063-.695313.328125-1.039063.488282-.988281.457031-1.976562.910156-2.964844 1.355468-.371093.167969-.738281.332032-1.109374.496094-3.273438 1.457031-6.578126 2.84375-9.90625 4.167969-.210938.085937-.425782.167969-.640626.253906-3.578124 1.40625-7.183593 2.738281-10.816406 3.984375-.007812.003906-.019531.007812-.027344.011719-1.238281.425781-2.484374.839843-3.730468 1.25 0 0-.003906 0-.007813 0v13.199219c20.023438-6.539063 39.238281-15.488282 57.203125-26.691407zm0 0" fill="#fff235"/><path d="m293.222656 282.015625c-17.964844-11.207031-37.179687-20.152344-57.199218-26.695313v30c1.25.410157 2.496093.828126 3.738281 1.253907.003906 0 .007812.003906.007812.003906 3.640625 1.25 7.25 2.582031 10.832031 3.992187.210938.082032.421876.167969.632813.25 3.332031 1.324219 6.640625 2.714844 9.914063 4.171876.371093.164062.734374.324218 1.105468.492187.988282.449219 1.980469.898437 2.96875 1.359375.339844.160156.679688.320312 1.019532.480469 1.710937.808593 3.410156 1.632812 5.105468 2.472656.519532.257813 1.039063.515625 1.554688.777344.847656.429687 1.691406.863281 2.53125 1.300781.609375.316406 1.21875.640625 1.832031.964844 1.167969.617187 2.335937 1.246094 3.496094 1.882812.820312.453125 1.644531.90625 2.460937 1.367188.730469.410156 1.457032.828125 2.179688 1.246094.703125.40625 1.40625.8125 2.105468 1.226562.699219.410156 1.398438.820312 2.097657 1.242188 1.203125.722656 2.402343 1.457031 3.59375 2.199218.007812.003906.011719.007813.019531.011719v-30zm0 0" fill="#f6ca14"/><path d="m82.820312 192.960938c-4.96875 0-9 4.027343-9 9v6.800781c0-4.972657 4.03125-9 9-9h12.007813v-6.800781zm0 0" fill="#fff235"/><path d="m123.472656 303.960938-14.125-9.953126c-2.769531-1.949218-4.414062-5.125-4.414062-8.511718v-13.136719h18.539062zm0 0" fill="#f6ca14"/><path d="m162.671875 364.359375h-27.421875c-2.914062 0-5.410156-2.097656-5.910156-4.972656l-15.136719-87.027344h39.597656l14.777344 84.972656c.640625 3.671875-2.183594 7.027344-5.90625 7.027344zm0 0" fill="#fff235"/><path d="m168.140625 354.804688c-.929687 2.070312-2.996094 3.554687-5.46875 3.554687h-27.421875c-2.917969 0-5.410156-2.097656-5.910156-4.972656l-14.09375-81.027344h-1.042969l15.136719 87.027344c.5 2.875 2.992187 4.972656 5.910156 4.972656h27.421875c3.722656 0 6.546875-3.355469 5.910156-7.027344zm0 0" fill="#f6ca14"/><path d="m155.054688 279.558594-1.25-7.199219h-48.871094v7.199219zm0 0" fill="#e7ad27"/><path d="m87.109375 192.960938h7.71875v61.597656h-7.71875zm0 0" fill="#e7ad27"/><path d="m345.023438 251.023438v-54.527344c-2.832032-.933594-5.855469-1.445313-9-1.445313h-.007813v57.421875h.007813c3.144531-.003906 6.167968-.515625 9-1.449218zm0 0" fill="#e7ad27"/><path d="m138.277344 318.257812c.585937 3.351563 3.496094 5.800782 6.898437 5.800782h17.617188l-2.433594-14h-15.183594c-4.347656 0-7.640625 3.917968-6.898437 8.199218zm0 0" fill="#fddd3a"/><path d="m141.273438 302.15625h17.710937l-2.433594-14h-15.273437c-4.347656 0-7.640625 3.917969-6.898438 8.203125.582032 3.351563 3.492188 5.796875 6.894532 5.796875zm0 0" fill="#fddd3a"/><path d="m164.167969 331.957031h-15.09375c-4.347657 0-7.640625 3.917969-6.894531 8.199219.582031 3.355469 3.492187 5.800781 6.894531 5.800781h17.527343zm0 0" fill="#fddd3a"/><path d="m397.636719 217.621094h-13.25c-3.382813 0-6.140625 2.753906-6.140625 6.140625s2.753906 6.140625 6.140625 6.140625h13.25c3.386719 0 6.140625-2.753906 6.140625-6.140625s-2.753906-6.140625-6.140625-6.140625zm-34.519531-39.074219c1.570312 0 3.144531-.597656 4.339843-1.796875l9.367188-9.367188c2.394531-2.394531 2.394531-6.289062 0-8.683593-1.160157-1.160157-2.703125-1.800781-4.34375-1.800781-1.636719 0-3.179688.640624-4.339844 1.800781l-9.367187 9.367187c-1.160157 1.160156-1.800782 2.703125-1.800782 4.339844 0 1.640625.640625 3.183594 1.800782 4.34375 1.199218 1.195312 2.769531 1.796875 4.34375 1.796875zm4.34375 92.226563c-2.394532-2.394532-6.289063-2.394532-8.683594 0-2.394532 2.394531-2.394532 6.289062 0 8.683593l9.367187 9.367188c1.195313 1.199219 2.769531 1.796875 4.339844 1.796875 1.574219 0 3.148437-.597656 4.34375-1.796875 2.394531-2.390625 2.394531-6.289063 0-8.683594zm0 0" fill="#fddd3a"/><path d="m376.824219 280.4375c-1.195313 1.195312-2.769531 1.792969-4.339844 1.792969-1.574219 0-3.144531-.597657-4.34375-1.792969l-9.367187-9.371094c-.046876-.046875-.085938-.097656-.132813-.144531-2.253906 2.402344-2.214844 6.1875.132813 8.535156l9.367187 9.367188c1.199219 1.199219 2.769531 1.796875 4.34375 1.796875 1.570313 0 3.144531-.597656 4.339844-1.796875 2.351562-2.347657 2.390625-6.132813.136719-8.535157-.046876.046876-.085938.097657-.136719.148438zm0 0" fill="#e7ad27"/><path d="m397.636719 221.511719h-13.25c-1.761719 0-3.351563-.75-4.472657-1.945313-1.03125 1.097656-1.667968 2.570313-1.667968 4.195313 0 3.386719 2.757812 6.140625 6.144531 6.140625h13.246094c3.386719 0 6.144531-2.753906 6.144531-6.140625 0-1.621094-.640625-3.097657-1.667969-4.195313-1.125 1.195313-2.714843 1.945313-4.476562 1.945313zm0 0" fill="#e7ad27"/><path d="m363.117188 178.546875c1.570312 0 3.144531-.597656 4.339843-1.796875l9.367188-9.367188c2.347656-2.347656 2.386719-6.136718.132812-8.539062-.046875.046875-.085937.101562-.132812.148438l-9.367188 9.367187c-1.195312 1.199219-2.769531 1.796875-4.339843 1.796875-1.574219 0-3.148438-.597656-4.34375-1.796875-.046876-.046875-.085938-.097656-.132813-.148437-1.074219 1.144531-1.664063 2.625-1.664063 4.195312 0 1.640625.636719 3.183594 1.796876 4.34375 1.199218 1.195312 2.769531 1.796875 4.34375 1.796875zm0 0" fill="#e7ad27"/></svg>