<svg height="477.60001pt" viewBox="0 0 477.60001 477.60001" width="477.60001pt" xmlns="http://www.w3.org/2000/svg"><path d="m477.601562 238.800781c0 131.886719-106.914062 238.800781-238.800781 238.800781s-238.800781-106.914062-238.800781-238.800781 106.914062-238.800781 238.800781-238.800781 238.800781 106.914062 238.800781 238.800781zm0 0" fill="#382b73"/><path d="m445.398438 238.800781c0 114.101563-92.496094 206.597657-206.597657 206.597657-114.101562 0-206.597656-92.496094-206.597656-206.597657 0-114.101562 92.496094-206.597656 206.597656-206.597656 114.101563 0 206.597657 92.496094 206.597657 206.597656zm0 0" fill="#473080"/><path d="m372.5 250.800781c0-.261719-.015625-.515625-.042969-.769531-.007812-.046875-.015625-.09375-.019531-.140625-.03125-.210937-.0625-.421875-.113281-.625-.003907-.03125-.015625-.058594-.019531-.089844-.054688-.226562-.117188-.449219-.195313-.664062 0-.007813-.003906-.015625-.007813-.023438-.8125-2.308593-2.792968-4.066406-5.234374-4.550781-3.449219-65.367188-55.835938-117.753906-121.203126-121.203125-.636718-3.210937-3.464843-5.632813-6.863281-5.632813-3.398437 0-6.230469 2.421876-6.863281 5.632813-65.367188 3.449219-117.753906 55.835937-121.203125 121.203125-2.445313.484375-4.425781 2.242188-5.234375 4.550781-.003906.007813-.007812.015625-.007812.023438-.078126.21875-.140626.441406-.195313.667969-.007813.027343-.015625.054687-.019531.085937-.046875.203125-.082032.414063-.113282.628906-.003906.046875-.015624.089844-.019531.136719-.027343.253906-.042969.511719-.042969.769531 0 3.347657 2.347657 6.140625 5.484376 6.832031-.023438.921876-.039063 1.84375-.039063 2.769532 0 45.34375 23.53125 85.191406 59.050781 107.996094v35.8125c0 2.730468 2.210938 4.941406 4.941406 4.941406h128.515626c2.730468 0 4.941406-2.210938 4.941406-4.941406v-35.8125c35.519531-22.804688 59.050781-62.652344 59.050781-107.996094 0-.925782-.015625-1.847656-.035156-2.769532 3.140625-.695312 5.488281-3.488281 5.488281-6.832031zm0 0" fill="#382b73"/><path d="m367.050781 248.398438c0 70.832031-57.421875 128.25-128.25 128.25-70.832031 0-128.25-57.417969-128.25-128.25 0-70.828126 57.417969-128.25 128.25-128.25 70.828125 0 128.25 57.421874 128.25 128.25zm0 0" fill="#e7ad27"/><path d="m367.050781 238.800781c0 70.828125-57.421875 128.25-128.25 128.25-70.832031 0-128.25-57.421875-128.25-128.25 0-70.832031 57.417969-128.25 128.25-128.25 70.828125 0 128.25 57.417969 128.25 128.25zm0 0" fill="#fddd3a"/><path d="m340.949219 238.800781c0 56.414063-45.734375 102.148438-102.148438 102.148438-56.417969 0-102.152343-45.734375-102.152343-102.148438 0-56.417969 45.734374-102.152343 102.152343-102.152343 56.414063 0 102.148438 45.734374 102.148438 102.152343zm0 0" fill="#106ea0"/><path d="m330.800781 238.800781c0 50.808594-41.191406 92-92 92-50.8125 0-92-41.191406-92-92 0-50.8125 41.1875-92 92-92 50.808594 0 92 41.1875 92 92zm0 0" fill="#1cade3"/><path d="m194.601562 269.101562c-3.730468 0-7.21875-2.335937-8.503906-6.058593-1.628906-4.695313.863282-9.820313 5.558594-11.445313l38.144531-13.207031v-63.390625c0-4.96875 4.03125-9 9-9 4.972657 0 9 4.03125 9 9v69.800781c0 3.835938-2.429687 7.25-6.054687 8.503907l-44.199219 15.300781c-.976563.335937-1.972656.496093-2.945313.496093zm0 0" fill="#106ea0"/><path d="m194.601562 263.101562c-3.730468 0-7.21875-2.335937-8.503906-6.058593-1.628906-4.695313.863282-9.820313 5.558594-11.445313l38.144531-13.207031v-63.390625c0-4.96875 4.03125-9 9-9 4.972657 0 9 4.03125 9 9v69.800781c0 3.835938-2.429687 7.25-6.054687 8.503907l-44.199219 15.300781c-.976563.335937-1.972656.496093-2.945313.496093zm0 0" fill="#fff"/><path d="m241.742188 240.703125-44.199219 15.300781c-.972657.339844-1.96875.5-2.941407.5-3.609374 0-6.984374-2.191406-8.367187-5.707031-.761719 1.929687-.871094 4.132813-.140625 6.246094 1.289062 3.722656 4.773438 6.058593 8.503906 6.058593.976563 0 1.96875-.160156 2.945313-.5l44.199219-15.300781c3.625-1.253906 6.054687-4.667969 6.054687-8.503906v-6.597656c.003906 3.835937-2.425781 7.25-6.054687 8.503906zm0 0" fill="#d0d2d3"/><path d="m245.800781 112.101562v24.796876c0 3.867187-3.136719 7-7 7-3.867187 0-7-3.132813-7-7v-24.796876c0-3.867187 3.132813-7 7-7 3.863281 0 7 3.132813 7 7zm-7 221.597657c-3.867187 0-7 3.136719-7 7v24.800781c0 3.867188 3.132813 7 7 7 3.863281 0 7-3.132812 7-7v-24.800781c0-3.863281-3.136719-7-7-7zm126.699219-101.898438h-24.800781c-3.863281 0-7 3.132813-7 7 0 3.863281 3.136719 7 7 7h24.800781c3.867188 0 7-3.136719 7-7 0-3.867187-3.132812-7-7-7zm-228.601562 0h-24.796876c-3.867187 0-7 3.132813-7 7 0 3.863281 3.132813 7 7 7h24.796876c3.867187 0 7-3.136719 7-7 0-3.867187-3.132813-7-7-7zm0 0" fill="#fff235"/><g fill="#f6ca14"><path d="m136.898438 239.800781h-24.796876c-2.792968 0-5.195312-1.640625-6.320312-4-.433594.910157-.679688 1.921875-.679688 3 0 3.863281 3.132813 7 7 7h24.796876c3.867187 0 7-3.136719 7-7 0-1.078125-.25-2.089843-.679688-3-1.125 2.359375-3.527344 4-6.320312 4zm0 0"/><path d="m238.800781 366.5c-3.867187 0-7-3.132812-7-7v6c0 3.867188 3.132813 7 7 7 3.863281 0 7-3.132812 7-7v-6c0 3.867188-3.136719 7-7 7zm0 0"/><path d="m365.5 239.800781h-24.800781c-2.789063 0-5.191407-1.640625-6.316407-4-.433593.910157-.679687 1.921875-.679687 3 0 3.863281 3.132813 7 7 7h24.800781c3.863282 0 7-3.136719 7-7 0-1.078125-.25-2.089843-.683594-3-1.125 2.359375-3.53125 4-6.320312 4zm0 0"/><path d="m238.800781 137.898438c-3.867187 0-7-3.132813-7-7v6c0 3.867187 3.132813 7 7 7 3.863281 0 7-3.132813 7-7v-6c0 3.867187-3.136719 7-7 7zm0 0"/></g><path d="m308 299.265625h-38.773438c0-1.515625-.769531-2.855469-1.9375-3.644531-.117187-.078125-.238281-.152344-.363281-.21875-.074219-.039063-.152343-.074219-.226562-.109375v-9.160157c0-5.453124-4.433594-9.886718-9.886719-9.886718h-36.027344c-5.449218 0-9.886718 4.433594-9.886718 9.886718v9.160157c-.074219.035156-.152344.070312-.226563.109375-.125.066406-.246094.140625-.363281.21875-1.167969.789062-1.933594 2.125-1.933594 3.644531h-38.773438c-2.730468 0-4.945312 2.210937-4.945312 4.941406v38.761719c0 2.730469 2.214844 4.941406 4.945312 4.941406v8.484375c19.960938 12.816407 43.710938 20.253907 69.199219 20.253907 25.484375 0 49.234375-7.4375 69.199219-20.253907v-8.484375c2.730469 0 4.941406-2.210937 4.941406-4.941406v-38.761719c.003906-2.730469-2.210937-4.941406-4.941406-4.941406zm-51.1875-3.972656c-.332031.15625-.644531.351562-.925781.582031-.109375.089844-.210938.183594-.3125.285156-.199219.199219-.378907.414063-.535157.648438-.078124.117187-.152343.238281-.222656.363281-.335937.621094-.527344 1.335937-.527344 2.09375h-30.976562c0-.757813-.191406-1.472656-.527344-2.09375-.070312-.125-.140625-.246094-.222656-.363281-.113281-.171875-.246094-.332032-.386719-.484375-.386719-.429688-.859375-.78125-1.386719-1.03125v-9.160157h36.027344v9.160157zm0 0" fill="#e7ad27"/><path d="m312.945312 304.207031c0-2.730469-2.214843-4.941406-4.941406-4.941406h-38.777344c0-1.515625-.765624-2.855469-1.9375-3.644531-.113281-.078125-.238281-.152344-.359374-.21875-.074219-.039063-.152344-.074219-.226563-.109375v-9.160157c0-5.453124-4.433594-9.886718-9.886719-9.886718h-36.027344c-5.449218 0-9.886718 4.433594-9.886718 9.886718v9.160157c-.078125.035156-.15625.070312-.226563.109375-.125.066406-.246093.140625-.363281.21875-1.167969.789062-1.9375 2.125-1.9375 3.644531h-38.773438c-2.730468 0-4.945312 2.210937-4.945312 4.941406v4.855469c18.617188 19.636719 44.949219 31.886719 74.144531 31.886719 29.195313 0 55.527344-12.25 74.144531-31.886719zm-56.132812-8.914062c-.332031.15625-.644531.351562-.925781.582031-.109375.089844-.210938.183594-.3125.285156-.199219.199219-.378907.414063-.535157.648438-.078124.117187-.152343.238281-.222656.363281-.335937.621094-.527344 1.335937-.527344 2.09375h-30.976562c0-.757813-.191406-1.472656-.527344-2.09375-.070312-.125-.140625-.246094-.222656-.363281-.113281-.171875-.246094-.332032-.386719-.484375-.386719-.429688-.859375-.78125-1.386719-1.03125v-9.160157h36.027344v9.160157zm0 0" fill="#106ea0"/><path d="m308 341.914062h-138.398438c-2.730468 0-4.945312-2.214843-4.945312-4.941406v-38.761718c0-2.730469 2.214844-4.941407 4.945312-4.941407h138.398438c2.730469 0 4.941406 2.210938 4.941406 4.941407v38.761718c.003906 2.730469-2.210937 4.941406-4.941406 4.941406zm0 0" fill="#ee5a9c"/><path d="m303.058594 397.152344h-128.515625c-2.730469 0-4.941407-2.210938-4.941407-4.941406v-43.707032h138.398438v43.707032c0 2.730468-2.210938 4.941406-4.941406 4.941406zm0 0" fill="#a62973"/><path d="m303.058594 390.5625h-128.515625c-2.730469 0-4.941407-2.210938-4.941407-4.941406v-43.707032h138.398438v43.707032c0 2.730468-2.210938 4.941406-4.941406 4.941406zm0 0" fill="#e43c90"/><path d="m169.601562 341.914062h138.398438v6.320313h-138.398438zm0 0" fill="#a62973"/><path d="m266.699219 293.265625h-9.886719v-13.132813h-36.027344v13.132813h-9.886718v-13.132813c0-5.449218 4.4375-9.886718 9.886718-9.886718h36.027344c5.453125 0 9.886719 4.433594 9.886719 9.886718zm0 0" fill="#ee5a9c"/><path d="m261.757812 293.265625v-13.132813c0-2.730468-2.214843-4.941406-4.945312-4.941406h-36.027344c-2.730468 0-4.941406 2.210938-4.941406 4.941406v13.132813h4.941406v-13.132813h36.027344v13.132813zm0 0" fill="#e43c90"/><path d="m223.3125 293.265625h-14.9375c0-2.425781 1.96875-4.394531 4.394531-4.394531h6.152344c2.425781 0 4.390625 1.96875 4.390625 4.394531zm0 0" fill="#f6ca14"/><path d="m269.226562 293.265625h-14.9375c0-2.425781 1.96875-4.394531 4.394532-4.394531h6.152344c2.421874 0 4.390624 1.96875 4.390624 4.394531zm0 0" fill="#f6ca14"/><path d="m265.710938 293.265625h-7.910157v-1.195313c0-1.765624 1.433594-3.195312 3.195313-3.195312h1.515625c1.765625 0 3.195312 1.429688 3.195312 3.195312v1.195313zm0 0" fill="#fddd3a"/><path d="m219.796875 293.265625h-7.90625v-1.195313c0-1.765624 1.429687-3.195312 3.195313-3.195312h1.515624c1.765626 0 3.195313 1.429688 3.195313 3.195312zm0 0" fill="#fddd3a"/><path d="m218.921875 288.871094h-6.152344c-2.425781 0-4.394531 1.96875-4.394531 4.394531h.113281c.453125-1.949219 2.195313-3.40625 4.28125-3.40625h6.152344c2.085937 0 3.824219 1.457031 4.277344 3.40625h.113281c0-2.425781-1.964844-4.394531-4.390625-4.394531zm0 0" fill="#fff235"/><path d="m264.832031 288.871094h-6.152343c-2.425782 0-4.394532 1.96875-4.394532 4.394531h.117188c.449218-1.949219 2.191406-3.40625 4.277344-3.40625h6.152343c2.085938 0 3.828125 1.457031 4.277344 3.40625h.117187c0-2.425781-1.96875-4.394531-4.394531-4.394531zm0 0" fill="#fff235"/><path d="m203.867188 338.300781c0-2.246093-1.824219-4.070312-4.070313-4.070312h-6.515625c-.703125 0-1.367188.175781-1.941406.492187-.191406.101563-.371094.226563-.542969.359375-.140625.105469-.273437.21875-.394531.34375-.738282.734375-1.191406 1.753907-1.191406 2.878907v15.464843c0 2.246094 1.824218 4.070313 4.070312 4.070313h6.515625c2.25 0 4.074219-1.824219 4.074219-4.070313v-15.46875zm0 0" fill="#a62973"/><path d="m199.796875 354.542969h-6.515625c-2.25 0-4.074219-1.824219-4.074219-4.074219v-13.425781c0-2.25 1.824219-4.074219 4.074219-4.074219h6.515625c2.246094 0 4.070313 1.824219 4.070313 4.074219v13.425781c0 2.25-1.820313 4.074219-4.070313 4.074219zm0 0" fill="#e7ad27"/><path d="m199.796875 352.507812h-6.515625c-2.25 0-4.074219-1.824218-4.074219-4.074218v-13.425782c0-2.25 1.824219-4.074218 4.074219-4.074218h6.515625c2.246094 0 4.070313 1.824218 4.070313 4.074218v13.425782c0 2.25-1.820313 4.074218-4.070313 4.074218zm0 0" fill="#fddd3a"/><path d="m199.796875 330.933594h-6.515625c-2.25 0-4.074219 1.824218-4.074219 4.074218v.8125c0-2.25 1.824219-4.074218 4.074219-4.074218h6.515625c2.246094 0 4.070313 1.824218 4.070313 4.074218v-.8125c0-2.25-1.820313-4.074218-4.070313-4.074218zm0 0" fill="#fff235"/><path d="m199.425781 334.394531h-5.5c-1.125 0-2.035156.914063-2.035156 2.039063v8.515625h9.570313v-8.515625c0-1.128906-.914063-2.039063-2.035157-2.039063zm0 0" fill="#fff235"/><path d="m201.460938 341.71875h-9.570313v5.980469c0 1.121093.910156 2.035156 2.035156 2.035156h5.5c1.121094 0 2.035157-.914063 2.035157-2.035156zm0 0" fill="#f6ca14"/><path d="m288.390625 338.300781c0-2.246093-1.824219-4.070312-4.074219-4.070312h-6.515625c-.699219 0-1.363281.175781-1.9375.492187-.191406.101563-.375.226563-.546875.359375-.136718.105469-.269531.21875-.394531.34375-.734375.734375-1.191406 1.753907-1.191406 2.878907v15.464843c0 2.246094 1.820312 4.070313 4.070312 4.070313h6.515625c2.25 0 4.074219-1.824219 4.074219-4.070313zm0 0" fill="#a62973"/><path d="m284.316406 354.542969h-6.515625c-2.246093 0-4.070312-1.824219-4.070312-4.074219v-13.425781c0-2.25 1.820312-4.074219 4.070312-4.074219h6.515625c2.25 0 4.074219 1.824219 4.074219 4.074219v13.425781c0 2.25-1.824219 4.074219-4.074219 4.074219zm0 0" fill="#e7ad27"/><path d="m284.316406 352.507812h-6.515625c-2.246093 0-4.070312-1.824218-4.070312-4.074218v-13.425782c0-2.25 1.820312-4.074218 4.070312-4.074218h6.515625c2.25 0 4.074219 1.824218 4.074219 4.074218v13.425782c0 2.25-1.824219 4.074218-4.074219 4.074218zm0 0" fill="#fddd3a"/><path d="m284.316406 330.933594h-6.515625c-2.246093 0-4.070312 1.824218-4.070312 4.074218v.8125c0-2.25 1.820312-4.074218 4.070312-4.074218h6.515625c2.25 0 4.074219 1.824218 4.074219 4.074218v-.8125c0-2.25-1.824219-4.074218-4.074219-4.074218zm0 0" fill="#fff235"/><path d="m283.945312 334.394531h-5.496093c-1.125 0-2.039063.914063-2.039063 2.039063v8.515625h9.570313v-8.515625c0-1.128906-.910157-2.039063-2.035157-2.039063zm0 0" fill="#fff235"/><path d="m285.980469 341.71875h-9.570313v5.980469c0 1.121093.914063 2.035156 2.039063 2.035156h5.496093c1.125 0 2.035157-.914063 2.035157-2.035156zm0 0" fill="#f6ca14"/></svg>