<?xml version="1.0" encoding="utf-8"?>
<!-- Generator: Adobe Illustrator 22.0.1, SVG Export Plug-In . SVG Version: 6.00 Build 0)  -->
<svg version="1.1" id="Layer_1" xmlns="http://www.w3.org/2000/svg" xmlns:xlink="http://www.w3.org/1999/xlink" x="0px" y="0px"
	 viewBox="0 0 706 219.5" style="enable-background:new 0 0 706 219.5;" xml:space="preserve">
<style type="text/css">
	.st0{fill:#FF6400;}
	.st1{font-family:'BroetownSignature';}
	.st2{font-size:118.6188px;}
	.st3{display:none;}
	.st4{display:inline;fill:#333333;}
	.st5{display:none;fill:#333333;}
</style>
<text transform="matrix(1 0 0 1 11.243 117.5757)" class="st0 st1 st2">Waqar Ahamd Khan</text>
<g class="st3">
	<path class="st4" d="M596.5,188.4H358.4c-3.4,0-6.2-2.8-6.2-6.2l0,0c0-3.4,2.8-6.2,6.2-6.2h238.1c3.4,0,6.2,2.8,6.2,6.2l0,0
		C602.7,185.6,599.9,188.4,596.5,188.4z"/>
	<path class="st4" d="M596.5,173.9H255.2c-3.4,0-6.2-2.8-6.2-6.2l0,0c0-3.4,2.8-6.2,6.2-6.2h341.2c3.4,0,6.2,2.8,6.2,6.2l0,0
		C602.7,171.1,599.9,173.9,596.5,173.9z"/>
</g>
<path class="st5" d="M596.5,205.9H432c-3.4,0-6.2-2.8-6.2-6.2l0,0c0-3.4,2.8-6.2,6.2-6.2h164.4c3.4,0,6.2,2.8,6.2,6.2l0,0
	C602.7,203.1,599.9,205.9,596.5,205.9z"/>
</svg>
